<?xml version="1.0" standalone="no"?>
<!DOCTYPE svg PUBLIC "-//W3C//DTD SVG 1.1//EN" "http://www.w3.org/Graphics/SVG/1.1/DTD/svg11.dtd" >
<svg>
<metadata>
Created by FontForge 20110222 at Mon Mar  7 11:29:48 2011
 By www-data
Copyright (c) 2010 by Type The Font. All rights reserved.
</metadata>
<defs>
<font id="Balham" horiz-adv-x="550" >
  <font-face 
    font-family="Balham"
    font-weight="400"
    font-stretch="normal"
    units-per-em="1000"
    panose-1="2 0 5 3 9 0 0 2 0 3"
    ascent="800"
    descent="-200"
    x-height="430"
    cap-height="730"
    bbox="-25.2697 -216.056 1226 943"
    underline-thickness="50"
    underline-position="-50"
    stemh="29"
    stemv="436"
    unicode-range="U+0020-2122"
  />
    <missing-glyph />
    <glyph glyph-name="quotedbl" unicode="&#x22;" horiz-adv-x="320" 
d="M238 762c24 0 45 -22 45 -38c0 -61 -26 -121 -32 -188c-1 -13 -4 -17 -13 -17c-8 0 -14 7 -15 17c-4 67 -28 127 -28 188c0 16 25 38 43 38zM80 762c24 0 45 -22 45 -38c0 -61 -26 -121 -32 -188c-1 -13 -4 -17 -13 -17c-8 0 -14 7 -15 17c-4 67 -28 127 -28 188
c0 16 25 38 43 38z" />
    <glyph glyph-name="numbersign" unicode="#" horiz-adv-x="625" 
d="M232 673l54 3l-30 -189l174 2l28 178l56 3l-29 -180l116 1l-15 -46l-109 -1l-30 -185l136 2l-14 -44l-129 -2l-32 -199l-54 -4l32 202l-175 -2l-31 -196l-52 -3l31 198l-125 -2l11 43l121 2l29 187l-129 -1l13 45l124 1zM248 442l-30 -187l175 3l30 185z" />
    <glyph glyph-name="dollar" unicode="$" 
d="M210 767l23 -1v-71c14 3 29 4 43 4c18 0 36 -2 53 -5v76h21v-81c75 -19 167 -124 136 -122c-25 2 -15 0 -63 52c-12 12 -38 38 -73 48v-286c20 -8 41 -17 62 -29c32 -18 93 -64 93 -161c0 -95 -61 -167 -156 -192v-126l-22 -1v122c-17 -2 -34 -4 -53 -4
c-15 0 -28 1 -42 2v-120l-26 -1l1 125c-101 20 -226 163 -163 147c12 -3 10 -3 58 -61c19 -24 57 -52 105 -66l1 336l-7 3c-57 21 -129 49 -129 169c0 84 65 142 138 165v78zM208 427l2 241c-49 -16 -91 -52 -91 -114c0 -76 35 -105 89 -127zM233 344l-1 -333
c11 -2 22 -3 33 -3c21 0 42 3 62 8l1 296c-30 13 -62 21 -95 32zM233 418c27 -10 60 -18 95 -30l1 285c-17 3 -36 5 -56 5c-13 0 -27 -1 -40 -4v-256zM349 303v-280c58 21 104 66 104 139c0 70 -48 114 -97 138z" />
    <glyph glyph-name="colon" unicode=":" horiz-adv-x="195" 
d="M97 102c37 0 58 -26 58 -57s-22 -58 -57 -58c-33 0 -58 25 -58 55c0 34 22 60 57 60zM97 435c37 0 58 -26 58 -57s-22 -58 -57 -58c-33 0 -58 25 -58 55c0 34 22 60 57 60z" />
    <glyph glyph-name="semicolon" unicode=";" horiz-adv-x="196" 
d="M97 435c37 0 58 -26 58 -57s-22 -58 -57 -58c-33 0 -58 24 -58 56c0 33 22 59 57 59zM88 102c26 0 58 -16 72 -54c5 -13 6 -29 6 -48c0 -16 -2 -32 -8 -46c-21 -56 -78 -99 -110 -122c-7 -6 -10 -6 -16 1s-9 12 -5 15c32 22 59 46 79 74c12 16 18 28 18 46
c0 14 -11 22 -21 24c-39 4 -71 22 -71 55c0 29 18 55 56 55z" />
    <glyph glyph-name="less" unicode="&#x3c;" horiz-adv-x="593" 
d="M556 561l-450 -236l455 -259v-66l-521 298v56l516 268v-61z" />
    <glyph glyph-name="P" unicode="P" horiz-adv-x="656" 
d="M227 330v-330h-85v727c34 0 133 1 230 1c92 0 234 -65 234 -195c0 -137 -139 -195 -266 -195c-53 0 -95 1 -103 1c-9 0 -10 -3 -10 -9zM504 527c0 84 -10 152 -133 173c-25 4 -92 1 -117 1c-28 0 -27 1 -28 -36c-1 -33 0 -280 0 -287s3 -10 10 -10c32 0 91 1 113 1
c92 3 155 52 155 158z" />
    <glyph glyph-name="Q" unicode="Q" horiz-adv-x="754" 
d="M597 369c0 294 -150 346 -220 346c-72 0 -226 -28 -226 -345c0 -341 167 -352 222 -352c56 0 224 25 224 351zM702 373c0 -176 -144 -336 -256 -379c35 -27 54 -55 194 -28l-1 -63c-85 12 -163 -28 -275 84c-199 9 -314 187 -314 381c0 238 160 379 326 379
s326 -157 326 -374z" />
    <glyph glyph-name="underscore" unicode="_" horiz-adv-x="500" 
d="M0 -78h500v-47h-500v47z" />
    <glyph glyph-name="braceleft" unicode="{" horiz-adv-x="300" 
d="M282 742c6 0 8 -7 8 -15s-2 -13 -8 -13s-21 1 -32 1c-41 -1 -83 -28 -81 -65c5 -84 22 -138 28 -200c9 -90 -50 -175 -105 -177c-2 0 -3 -1 -3 -3s0 -3 3 -3c55 -2 104 -71 99 -155c-4 -73 -17 -143 -20 -216c-2 -43 28 -75 69 -79c16 -2 32 1 37 1c4 0 8 -4 8 -12
s-3 -14 -9 -14c-7 0 -38 0 -58 1c-77 5 -119 69 -117 141c3 97 19 154 26 224c6 60 -10 99 -79 99c-6 0 -13 -3 -20 -3c-6 0 -12 7 -12 17c0 9 4 15 12 15c7 0 14 -2 20 -2c71 0 85 46 83 88c-2 52 -26 152 -28 212c-3 86 54 153 133 157c16 1 38 1 46 1z" />
    <glyph glyph-name="exclamdown" unicode="&#xa1;" horiz-adv-x="183" 
d="M96 -213c-28 0 -47 25 -47 63l19 481c0 8 18 11 28 11s34 -5 34 -11l14 -482c0 -29 -19 -62 -48 -62zM98 457c-31 0 -47 22 -47 48c0 25 18 48 46 48c27 0 47 -20 47 -47c0 -28 -18 -49 -46 -49z" />
    <glyph glyph-name="cent" unicode="&#xa2;" 
d="M356 458c-13 10 -23 14 -45 14c-57 0 -96 -47 -133 -113c-35 -63 -52 -138 -46 -197c3 -39 24 -63 46 -72c54 127 161 317 178 368zM485 712c4 7 6 9 13 5c5 -2 7 -4 12 -6c8 -5 11 -11 7 -17c-7 -10 -96 -187 -117 -230c23 -23 37 -47 40 -82c3 -33 -23 -51 -44 -51
c-12 0 -32 4 -47 27c-23 -49 -112 -225 -140 -284c16 -4 22 -4 37 -4c55 0 118 53 154 98c3 4 7 6 12 3c2 -2 6 -4 8 -5c6 -6 4 -11 1 -15c-38 -55 -119 -109 -181 -109c-16 0 -27 1 -44 6c-11 -25 -97 -202 -114 -238c-3 -7 -13 -8 -17 -7s-15 7 -19 10c-7 4 -7 8 -5 13
c44 82 86 169 120 230c-16 11 -98 47 -107 146c-7 83 18 138 62 195c38 48 111 101 186 101c34 0 46 -9 69 -19c22 48 110 224 114 233z" />
    <glyph glyph-name="Ydieresis" unicode="&#x178;" horiz-adv-x="755" 
d="M405 345c69 112 229 368 238 385h41c-12 -15 -202 -316 -260 -419v-310h-86v294l-263 435h108c0 -4 39 -76 222 -385zM320 865c25 0 45 -19 45 -45c0 -28 -18 -45 -45 -45c-25 0 -45 21 -45 45c0 28 20 45 45 45zM483 865c25 0 45 -19 45 -45c0 -28 -18 -45 -45 -45
c-25 0 -45 21 -45 45c0 28 20 45 45 45z" />
    <glyph glyph-name="space" unicode=" " horiz-adv-x="225" 
 />
    <glyph glyph-name="percent" unicode="%" horiz-adv-x="899" 
d="M266 640c-54 0 -113 -75 -148 -150c-13 -28 -31 -81 -31 -109c0 -37 35 -65 65 -65c101 0 181 102 193 241c-25 9 -52 30 -50 75c-7 6 -17 8 -29 8zM752 387c-67 0 -112 -69 -146 -156c-9 -23 -21 -72 -21 -100c0 -47 25 -78 76 -78c90 0 163 146 163 235
c0 78 -37 99 -72 99zM751 416c49 0 102 -31 102 -131c0 -109 -83 -261 -204 -261c-81 0 -132 72 -132 150c0 131 131 242 234 242zM672 776c4 -2 7 -2 11 -5c5 -3 6 -5 2 -11c-66 -113 -473 -860 -479 -873s-12 -17 -19 -18c-7 0 -34 -2 -43 -2c-12 0 -12 13 -6 21
c10 11 85 137 474 791c-72 -69 -154 -130 -239 -126c-7 -134 -105 -263 -209 -263c-95 0 -135 75 -135 145c0 113 137 229 229 229c76 0 100 -46 111 -87c88 -2 155 45 249 139c13 14 32 38 43 55c4 6 7 7 11 5z" />
    <glyph glyph-name="ampersand" unicode="&#x26;" horiz-adv-x="794" 
d="M241 376c-57 -20 -89 -87 -83 -176c9 -139 134 -183 218 -167c72 14 65 15 118 40c-62 66 -207 217 -253 303zM334 708c-74 -5 -91 -49 -87 -105c5 -78 22 -114 65 -174c79 43 121 90 116 173c-5 80 -33 110 -94 106zM318 738c114 8 176 -59 180 -125
c6 -88 -74 -153 -177 -203c50 -94 159 -199 229 -277c51 64 68 164 65 214l55 4c-24 -59 -39 -163 -99 -234l150 -102l-60 -6c-58 -4 -101 8 -141 43c-36 -27 -98 -60 -193 -61c-114 -1 -245 43 -254 182s87 196 158 226c-23 50 -54 99 -58 165c-5 77 51 168 145 174z" />
    <glyph glyph-name="quoteright" unicode="&#x2019;" horiz-adv-x="196" 
d="M88 738c26 0 58 -16 72 -54c5 -13 6 -29 6 -48c0 -16 -2 -32 -8 -46c-21 -56 -78 -99 -110 -122c-7 -6 -10 -6 -16 1s-9 12 -5 15c32 22 59 46 79 74c12 16 18 28 18 46c0 14 -11 22 -21 24c-39 4 -71 22 -71 55c0 29 18 55 56 55z" />
    <glyph glyph-name="parenleft" unicode="(" horiz-adv-x="298" 
d="M256 737c8 -9 9 -13 3 -20c-115 -121 -137 -229 -137 -443c0 -237 41 -367 142 -464c7 -7 4 -13 -4 -19c-9 -8 -13 -9 -18 -4c-88 95 -211 236 -211 487c0 226 80 341 205 469c6 5 12 2 20 -6z" />
    <glyph glyph-name="parenright" unicode=")" horiz-adv-x="298" 
d="M43 737c8 8 15 11 20 6c125 -128 205 -243 205 -469c0 -251 -123 -392 -211 -487c-5 -5 -9 -4 -18 4c-8 6 -11 12 -4 19c101 97 142 227 142 464c0 214 -22 322 -137 443c-6 7 -5 11 3 20z" />
    <glyph glyph-name="asterisk" unicode="*" horiz-adv-x="520" 
d="M443 639c13 -22 -5 -46 -25 -58c-39 -22 -68 -5 -128 -40c-6 -4 -9 -3 -13 3c-3 6 -3 11 2 14c65 35 55 65 97 89c29 17 54 14 67 -8zM442 434c-13 -22 -41 -23 -61 -11c-39 22 -35 53 -100 89c-7 4 -7 8 -4 12c3 6 4 9 11 6c65 -36 95 -17 133 -38c29 -16 34 -35 21 -58
zM257 329c-25 0 -38 23 -38 47c0 44 31 55 31 130c0 8 1 10 8 10s10 0 10 -8c0 -74 31 -81 31 -130c0 -33 -16 -49 -42 -49zM79 434c-13 22 0 46 21 57c29 14 69 3 129 37c7 4 10 4 14 -2c3 -6 5 -9 -3 -14c-64 -37 -55 -65 -97 -89c-29 -17 -51 -11 -64 11zM81 641
c12 22 38 20 59 8c38 -22 39 -54 99 -88c6 -4 7 -7 4 -13c-4 -6 -6 -9 -13 -6c-64 36 -83 16 -127 38c-29 14 -35 39 -22 61zM261 743c25 0 38 -23 38 -47c0 -44 -29 -61 -29 -130c0 -8 -3 -10 -10 -10s-10 1 -10 8c0 74 -29 80 -29 129c0 33 14 50 40 50z" />
    <glyph glyph-name="plus" unicode="+" horiz-adv-x="592" 
d="M276 586h52v-208h209v-51h-209v-207h-52v207h-215v51h215v208z" />
    <glyph glyph-name="comma" unicode="," horiz-adv-x="196" 
d="M88 102c26 0 58 -16 72 -54c5 -13 6 -29 6 -48c0 -16 -2 -32 -8 -46c-21 -56 -78 -99 -110 -122c-7 -6 -10 -6 -16 1s-9 12 -5 15c32 22 59 46 79 74c12 16 18 28 18 46c0 14 -11 22 -21 24c-39 4 -71 22 -71 55c0 29 18 55 56 55z" />
    <glyph glyph-name="hyphen" unicode="-" horiz-adv-x="229" 
d="M34 254h82c37 0 74 1 78 1c10 -1 14 -4 14 -11v-38c0 -9 -8 -15 -14 -15c-8 0 -28 3 -78 3h-80s-14 2 -14 8v40c0 6 4 12 12 12z" />
    <glyph glyph-name="period" unicode="." horiz-adv-x="195" 
d="M97 102c37 0 58 -26 58 -57s-22 -58 -57 -58c-33 0 -58 25 -58 55c0 34 22 60 57 60z" />
    <glyph glyph-name="slash" unicode="/" horiz-adv-x="330" 
d="M18 -45l243 805l55 -15l-244 -804z" />
    <glyph glyph-name="zero" unicode="0" 
d="M284 672c-85 0 -148 -67 -148 -316c0 -266 60 -347 142 -347c58 0 140 50 140 325c0 248 -57 338 -134 338zM279 704c107 0 229 -133 229 -351c0 -240 -124 -375 -227 -375c-106 0 -239 118 -239 369c0 250 147 357 237 357z" />
    <glyph glyph-name="one" unicode="1" 
d="M296 696c10 6 14 1 12 -8v-539v-147c-109 0 -52 0 -67 0v143c0 33 1 350 1 391c0 79 -5 84 -78 78c-9 -1 -11 2 -12 8c-1 7 1 10 6 11c74 14 85 29 138 63z" />
    <glyph glyph-name="two" unicode="2" 
d="M282 701c118 -1 209 -56 209 -172c0 -108 -60 -157 -139 -220c-83 -66 -179 -147 -237 -229c-5 -7 -3 -14 2 -14h372l-1 -66h-443l-1 34c80 126 188 227 270 312c56 58 91 118 91 186c0 91 -59 139 -124 140c-110 2 -146 -108 -155 -100l-5 2c-15 3 45 128 161 127z" />
    <glyph glyph-name="three" unicode="3" 
d="M245 709c113 6 210 -52 210 -159c0 -88 -52 -147 -150 -176c95 -16 190 -59 190 -185c0 -113 -111 -201 -239 -201c-164 0 -246 159 -228 163l16 -7c145 -193 361 -129 351 53c-6 110 -91 165 -167 165l1 26c74 0 161 62 161 158c0 91 -74 135 -145 135
c-81 0 -124 -63 -156 -99l-6 1c-13 13 54 120 162 126z" />
    <glyph glyph-name="four" unicode="4" 
d="M315 586l-243 -386l247 -2zM357 698h32v-698h-69l-1 171c-105 -1 -265 -2 -270 -2c-6 0 -9 1 -9 8v23c0 7 1 12 7 19s310 479 310 479z" />
    <glyph glyph-name="five" unicode="5" 
d="M85 334l30 353c129 0 335 5 354 5c6 0 10 -3 6 -10c-5 -9 -8 -17 -15 -37c-110 -1 -299 -2 -306 -2s-9 -1 -10 -8c-3 -75 -12 -159 -22 -260c52 43 101 67 158 67c96 0 221 -54 221 -218c0 -149 -128 -240 -257 -240c-126 0 -216 125 -179 122l8 -10
c207 -172 339 -23 339 111c0 150 -83 193 -140 193c-63 0 -120 -24 -152 -66c-6 -8 -10 -14 -15 -12c-8 3 -11 3 -16 5s-5 2 -4 7z" />
    <glyph glyph-name="six" unicode="6" 
d="M286 8c83 0 136 67 136 204c0 127 -53 174 -122 174c-85 0 -131 -62 -167 -112c1 -170 57 -266 153 -266zM286 -14c-126 0 -241 108 -241 332c0 208 111 392 275 392c114 0 182 -76 149 -83l-26 16c-208 106 -309 -62 -309 -327c44 66 110 114 180 114
c104 0 199 -76 199 -204s-103 -240 -227 -240z" />
    <glyph glyph-name="seven" unicode="7" 
d="M76 631l-6 62h426c7 0 10 -5 10 -19c0 -16 3 -17 -8 -33c-48 -73 -105 -190 -148 -294c-44 -106 -68 -180 -68 -312c0 -35 -2 -57 -32 -57c-24 0 -29 15 -29 55c0 109 38 250 79 327c51 96 121 207 165 268c-142 3 -252 3 -389 3z" />
    <glyph glyph-name="eight" unicode="8" 
d="M234 338c-86 -50 -133 -106 -131 -179c3 -72 85 -151 173 -148c100 4 180 49 176 149c-3 97 -88 131 -218 178zM270 680c-76 -3 -144 -53 -141 -130c2 -72 70 -117 186 -151c53 29 80 90 78 145c-3 82 -54 138 -123 136zM263 709c96 2 191 -45 197 -135
c6 -91 -27 -126 -119 -184c107 -35 184 -115 188 -210c4 -111 -107 -196 -236 -200c-128 -5 -262 52 -266 166c-4 102 75 150 182 201c-70 29 -130 81 -133 165c-4 105 75 195 187 197z" />
    <glyph glyph-name="nine" unicode="9" 
d="M264 688c-83 0 -136 -66 -136 -204c0 -126 53 -174 122 -174c85 0 131 63 167 112c-1 171 -57 266 -153 266zM264 710c126 0 241 -108 241 -331c0 -209 -126 -394 -268 -392c-137 2 -192 93 -159 92l10 -6c215 -160 328 26 328 307c-44 -65 -110 -113 -180 -113
c-104 0 -199 75 -199 203s103 240 227 240z" />
    <glyph glyph-name="equal" unicode="=" horiz-adv-x="592" 
d="M61 247h476v-51h-476v51zM61 477h476v-51h-476v51z" />
    <glyph glyph-name="greater" unicode="&#x3e;" horiz-adv-x="593" 
d="M489 325l-450 236v61l516 -268v-56l-521 -298v66z" />
    <glyph glyph-name="question" unicode="?" horiz-adv-x="403" 
d="M178 733c62 -1 182 -55 182 -191c0 -140 -112 -198 -180 -198c1 0 -2 -73 -2 -122c0 -17 -6 -22 -19 -22c-12 0 -18 4 -19 22c-2 55 -3 162 -3 176c0 11 6 17 14 17c74 0 153 57 153 143c0 70 -76 174 -190 130c-60 -23 -48 -69 -75 -56c-23 11 26 103 139 101zM164 94
c32 0 50 -22 50 -50c0 -27 -20 -50 -50 -50c-29 0 -50 21 -50 48c0 30 19 52 50 52z" />
    <glyph glyph-name="at" unicode="@" horiz-adv-x="869" 
d="M471 469c-50 0 -103 -39 -130 -99s-53 -127 -53 -195c0 -39 24 -100 54 -100c79 0 110 82 155 170c22 43 35 105 35 143c0 63 -29 81 -61 81zM505 693c198 0 345 -121 345 -319c0 -166 -139 -325 -254 -325c-74 0 -99 43 -88 115c-30 -42 -90 -117 -161 -117
c-81 0 -121 58 -121 136c0 173 143 313 233 313c79 0 96 -54 97 -94c14 22 37 71 40 78s7 10 12 10s29 -2 37 -2c7 0 12 -3 8 -10l-93 -295c-16 -40 -14 -107 36 -107c98 0 225 140 225 298c0 186 -135 293 -315 293c-200 0 -409 -200 -409 -441c0 -253 206 -351 354 -351
c157 0 271 75 357 184c5 6 9 6 17 0c9 -6 10 -10 5 -16c-92 -117 -215 -193 -377 -193c-247 0 -423 183 -423 384c0 292 256 459 475 459z" />
    <glyph glyph-name="A" unicode="A" horiz-adv-x="766" 
d="M355 659c-49 -137 -121 -341 -126 -351s0 -16 6 -16h249zM337 708l68 31c9 0 14 -3 16 -11l256 -728h-92l-87 262c-105 0 -259 -1 -269 -1s-19 -3 -21 -10c-4 -9 -46 -118 -87 -253c-75 -1 -31 2 -43 2z" />
    <glyph glyph-name="B" unicode="B" horiz-adv-x="671" 
d="M218 362v-292c0 -47 28 -44 60 -44c39 0 74 0 98 1c50 2 159 25 158 172c-1 119 -89 170 -192 170c-36 0 -105 2 -113 2s-11 -2 -11 -9zM309 705c-84 0 -90 6 -91 -45s-1 -172 -1 -259c49 0 104 3 128 4c99 3 150 67 150 160c0 97 -58 140 -186 140zM138 3v728h192
c138 0 263 -57 263 -169c0 -102 -107 -149 -172 -168c-5 -1 -4 -5 0 -6c114 -16 215 -77 215 -191c0 -123 -119 -197 -270 -197c-48 0 -197 3 -228 3z" />
    <glyph glyph-name="C" unicode="C" horiz-adv-x="695" 
d="M378 742c108 -2 168 -29 255 -137c4 -5 1 -10 -4 -12c-4 -2 -4 -2 -6 -4s-12 -1 -15 4c-44 74 -119 123 -223 119c-103 -4 -233 -74 -233 -360c0 -271 153 -328 249 -328c128 0 191 65 250 188c2 4 9 8 11 7s11 -7 13 -7s5 -7 2 -13c-45 -129 -150 -217 -280 -217
c-174 0 -354 118 -354 368c0 247 184 395 335 392z" />
    <glyph glyph-name="D" unicode="D" horiz-adv-x="773" 
d="M357 0h-221l1 726c34 0 154 2 251 2c115 0 335 -100 335 -358c0 -246 -172 -370 -366 -370zM254 24c18 -2 96 -2 154 4c90 10 213 70 213 335c0 225 -83 323 -227 336c-25 2 -104 3 -129 3c-35 0 -39 0 -39 -34v-599c0 -46 -2 -45 28 -45z" />
    <glyph glyph-name="E" unicode="E" horiz-adv-x="693" 
d="M133 2v729l513 -1v-26h-372c-30 0 -44 -8 -44 -40c0 -20 -3 -252 -3 -259c0 -9 1 -13 8 -13h91v-24h-87c-5 0 -11 -2 -11 -8l1 -267c0 -39 7 -61 46 -61h371v-30c-5 -1 -480 0 -513 0z" />
    <glyph glyph-name="F" unicode="F" horiz-adv-x="643" 
d="M134 1v729h436l-1 -29l-292 -1c-29 -6 -51 -24 -51 -56v-239c0 -9 2 -13 8 -13h91l1 -26h-87c-5 0 -11 0 -11 -6v-362z" />
    <glyph glyph-name="G" unicode="G" horiz-adv-x="757" 
d="M634 -13l-244 1c-213 1 -340 166 -340 354c0 230 173 392 338 403c175 12 237 -115 230 -122c-4 -4 -7 -5 -12 -6c-4 -1 -8 0 -11 5c-45 81 -126 97 -199 96c-90 -1 -237 -65 -237 -376c0 -317 182 -329 233 -329c138 1 179 15 179 66c0 35 -2 136 -2 165
c0 63 -35 46 -94 48c-6 0 -7 2 -7 6v14c0 5 2 8 7 8l159 -3v-330z" />
    <glyph glyph-name="H" unicode="H" horiz-adv-x="822" 
d="M221 357v-359h-84v732h84v-340h375v339h85v-732l-85 1v358z" />
    <glyph glyph-name="I" unicode="I" horiz-adv-x="384" 
d="M235 730v-732h-85l1 732h84z" />
    <glyph glyph-name="J" unicode="J" horiz-adv-x="393" 
d="M104 -112c76 2 78 88 78 111v691l82 43v-734c0 -100 -71 -143 -159 -143c-71 0 -151 80 -120 99c24 15 51 -69 119 -67z" />
    <glyph glyph-name="K" unicode="K" horiz-adv-x="781" 
d="M224 289l-1 -289h-81l-1 727l82 1v-401l392 401h48l-276 -272l321 -454h-96l-285 394z" />
    <glyph glyph-name="L" unicode="L" horiz-adv-x="654" 
d="M619 -2h-476v729h87v-655c0 -45 0 -45 44 -45h345v-29z" />
    <glyph glyph-name="M" unicode="M" horiz-adv-x="948" 
d="M138 730h92c6 0 8 2 12 -5c2 -7 143 -364 236 -597l236 602h98v-731h-87v673c-103 -262 -234 -592 -263 -672c-2 -4 -6 -6 -10 -6h-10c-4 0 -7 2 -8 6c-26 72 -161 410 -263 672v-673h-33v731z" />
    <glyph glyph-name="N" unicode="N" horiz-adv-x="820" 
d="M152 732h72c8 0 12 -2 16 -8c6 -8 396 -555 402 -563c4 -5 11 -4 11 3v568h34c0 -81 -2 -681 -1 -698v-39c0 -6 -2 -9 -12 -9c-12 0 -14 2 -18 8c-22 42 -264 365 -462 635c-1 2 -8 5 -8 -1v-628h-34v732z" />
    <glyph glyph-name="O" unicode="O" horiz-adv-x="786" 
d="M398 716c-75 0 -242 -23 -242 -348c0 -341 181 -354 240 -354c71 0 234 39 234 348c0 306 -158 354 -232 354zM389 746c171 0 347 -141 347 -371c0 -242 -159 -387 -340 -387c-180 0 -346 157 -346 365c0 253 180 393 339 393z" />
    <glyph glyph-name="R" unicode="R" horiz-adv-x="713" 
d="M289 705c-48 -3 -51 -1 -51 -30v-282c57 0 115 -1 139 2c68 8 150 38 150 149c0 87 -27 148 -150 160c-13 1 -58 3 -88 1zM147 736h212c175 0 272 -70 272 -190c0 -108 -120 -170 -214 -179c74 -113 221 -337 243 -367l-117 1l-192 360h-113v-361l-91 -1v737z" />
    <glyph glyph-name="S" unicode="S" horiz-adv-x="594" 
d="M268 745c132 4 193 -45 229 -123c2 -5 1 -7 -2 -9c-5 -2 -14 -10 -18 -1c-49 84 -113 106 -207 105c-81 -1 -139 -58 -139 -124c0 -68 53 -106 115 -127c64 -22 118 -35 168 -57c62 -27 130 -87 130 -201c0 -120 -113 -216 -288 -213c-104 2 -218 121 -208 138
c3 5 2 6 5 7c24 4 100 -106 208 -106c122 0 218 61 220 151c3 112 -148 141 -243 175c-50 18 -169 59 -169 190c0 115 102 192 199 195z" />
    <glyph glyph-name="T" unicode="T" horiz-adv-x="721" 
d="M278 703l-260 1v29h687v-29h-261c-41 0 -37 -5 -38 -39l-2 -665h-84v665c0 36 0 37 -42 38z" />
    <glyph glyph-name="U" unicode="U" horiz-adv-x="814" 
d="M134 729h88v-466c0 -167 78 -245 198 -245c173 0 225 110 225 232v479h37v-479c0 -157 -87 -265 -261 -265s-287 78 -287 248v496z" />
    <glyph glyph-name="V" unicode="V" horiz-adv-x="747" 
d="M85 722h86l231 -620l223 620h40c-9 -22 -234 -629 -278 -745c-3 -8 -3 -8 -12 -8s-11 2 -14 10c-37 112 -267 720 -276 743z" />
    <glyph glyph-name="W" unicode="W" horiz-adv-x="1033" 
d="M358 122l188 592l187 -588c54 180 173 569 179 597h37c-9 -22 -223 -718 -236 -747c-4 -8 -1 -8 -10 -8s-12 2 -14 10c-19 92 -111 388 -168 567c-46 -150 -163 -505 -175 -565c-2 -9 -7 -8 -16 -8s-14 2 -16 10c-13 69 -215 718 -224 741h88z" />
    <glyph glyph-name="X" unicode="X" horiz-adv-x="705" 
d="M78 720h95l191 -298l207 298h37l-227 -324l266 -396h-87l-228 332l-208 -333h-48l237 359c-73 116 -220 343 -235 362z" />
    <glyph glyph-name="Y" unicode="Y" horiz-adv-x="755" 
d="M405 345c69 112 229 368 238 385h41c-12 -15 -202 -316 -260 -419v-310h-86v294l-263 435h108c0 -4 39 -76 222 -385z" />
    <glyph glyph-name="Z" unicode="Z" horiz-adv-x="557" 
d="M24 699v27h494c9 0 9 -15 4 -22l-395 -663l426 -1v-40h-519c-17 0 -19 19 -12 29c165 256 270 420 410 670h-408z" />
    <glyph glyph-name="bracketleft" unicode="[" horiz-adv-x="272" 
d="M235 745v-32h-98v-825h110v-32h-183v889h171z" />
    <glyph glyph-name="backslash" unicode="\" horiz-adv-x="330" 
d="M73 760l243 -805l-54 -14l-244 804z" />
    <glyph glyph-name="bracketright" unicode="]" horiz-adv-x="272" 
d="M37 713v32h171v-889h-183v32h110v825h-98z" />
    <glyph glyph-name="asciicircum" unicode="^" horiz-adv-x="454" 
d="M224 730h18l132 -203l-14 -10l-130 128l-132 -127l-18 9z" />
    <glyph glyph-name="quoteleft" unicode="&#x2018;" horiz-adv-x="196" 
d="M100 464c-26 0 -58 15 -72 53c-5 13 -6 30 -6 49c0 16 2 31 8 46c21 56 78 99 109 122c8 6 11 5 17 -1c6 -7 9 -12 5 -15c-32 -23 -59 -47 -80 -74c-11 -16 -17 -28 -17 -47c0 -14 11 -22 21 -23c39 -5 71 -22 71 -55c0 -30 -18 -55 -56 -55z" />
    <glyph glyph-name="a" unicode="a" horiz-adv-x="456" 
d="M308 245c-74 -14 -179 -34 -179 -132c0 -48 30 -88 74 -80c48 9 71 15 105 28v184zM217 444c131 0 155 -101 155 -168v-276h-53l-12 32c-33 -12 -67 -35 -133 -35s-120 45 -120 109c0 112 139 148 246 160c8 1 9 5 9 12c0 8 1 38 1 38c-1 37 -24 93 -93 96
c-102 0 -102 -66 -127 -60c-26 12 29 91 127 92z" />
    <glyph glyph-name="b" unicode="b" horiz-adv-x="536" 
d="M292 417c-43 0 -74 -12 -121 -59c0 -90 -3 -207 -1 -231c1 -57 21 -76 36 -86c17 -11 43 -24 72 -24c66 0 134 23 134 207c0 176 -76 193 -120 193zM104 0v758h66c0 -6 -3 -376 -3 -376c47 53 85 68 138 68c84 0 189 -55 189 -227c0 -155 -95 -237 -193 -237
c-63 0 -93 39 -119 39c-24 0 -47 -16 -62 -31c-10 -11 -16 -5 -16 6z" />
    <glyph glyph-name="c" unicode="c" horiz-adv-x="455" 
d="M257 450c92 -3 145 -76 129 -85c-5 -2 -21 8 -46 29s-53 32 -86 31c-73 -1 -127 -63 -133 -190c-7 -153 60 -208 139 -211c71 -2 110 44 130 77c5 9 11 9 17 6c6 -4 8 -10 6 -15c-19 -41 -76 -111 -171 -108c-112 3 -208 90 -203 254c5 136 117 215 218 212z" />
    <glyph glyph-name="d" unicode="d" horiz-adv-x="542" 
d="M381 58c0 30 -2 178 -2 302c-31 37 -56 61 -115 61c-64 0 -141 -64 -141 -201c0 -155 77 -201 136 -201c49 0 83 7 122 39zM381 35c-43 -43 -77 -48 -144 -48c-84 0 -195 58 -195 221c0 149 103 246 200 246c66 0 97 -24 137 -72v377l65 -1v-758l-64 -1c-1 8 1 15 1 36z
" />
    <glyph glyph-name="e" unicode="e" horiz-adv-x="472" 
d="M251 426c-56 2 -123 -51 -130 -158h231c2 97 -49 156 -101 158zM251 454c118 0 178 -112 178 -199c0 -10 -1 -12 -10 -12h-297c0 -176 95 -217 157 -217c54 0 101 26 132 72c5 7 9 10 16 5c9 -6 10 -10 5 -17c-35 -54 -86 -102 -185 -102c-115 0 -205 95 -205 216
c0 136 87 254 209 254z" />
    <glyph glyph-name="f" unicode="f" horiz-adv-x="310" 
d="M174 401v-401l-65 -1c0 19 -2 416 0 602v11c0 204 174 154 203 115c20 -27 4 -36 -3 -38c-17 -6 -58 54 -112 19c-25 -19 -25 -61 -25 -93c0 -45 -1 -125 -1 -182c43 0 105 1 111 1c4 0 7 -4 7 -8v-18c0 -4 -4 -8 -7 -8s-66 1 -108 1z" />
    <glyph glyph-name="g" unicode="g" horiz-adv-x="513" 
d="M198 4c-153 -46 -131 -185 41 -185c90 0 177 19 177 87c0 82 -143 82 -218 98zM247 427c-41 0 -108 -22 -108 -135c0 -118 64 -137 103 -137c42 0 109 23 109 139c0 102 -61 133 -104 133zM245 450c49 0 91 -18 125 -50c45 92 147 33 13 -10c22 -26 42 -55 42 -96
c0 -92 -77 -161 -183 -161c-26 0 -50 6 -75 17c-24 -8 -51 -28 -51 -47s26 -26 69 -36c38 -9 113 -15 159 -23c88 -16 125 -47 125 -117c0 -69 -64 -131 -230 -131c-228 0 -294 158 -71 214c-77 14 -120 32 -120 63c0 39 41 65 103 85c-51 28 -89 73 -89 128
c0 89 85 164 183 164z" />
    <glyph glyph-name="h" unicode="h" horiz-adv-x="563" 
d="M168 363c29 37 94 84 154 84c61 0 139 -25 139 -129v-318h-69v301c0 77 -53 102 -89 102c-49 0 -96 -19 -133 -61c1 -104 1 -330 1 -343h-65v736l51 31c9 3 14 0 14 -8c0 -2 -4 -352 -3 -395z" />
    <glyph glyph-name="i" unicode="i" horiz-adv-x="278" 
d="M112 431l52 19c9 3 14 0 14 -9v-442h-67zM146 701c28 0 47 -25 47 -51c0 -24 -18 -46 -44 -46c-30 0 -49 17 -49 48c0 25 21 49 46 49z" />
    <glyph glyph-name="j" unicode="j" horiz-adv-x="260" 
d="M184 -95c-11 -67 -56 -91 -122 -91c-65 0 -100 59 -83 73c11 7 23 3 36 -12s28 -22 44 -22c52 0 59 49 60 84l-1 486l52 27c9 2 14 0 14 -9v-536zM153 702c29 0 49 -24 49 -50c0 -23 -18 -44 -45 -44c-31 0 -51 17 -51 46c0 25 22 48 47 48z" />
    <glyph glyph-name="k" unicode="k" horiz-adv-x="555" 
d="M105 749l52 24c11 5 20 3 20 -8c0 -8 -4 -551 -4 -551c61 55 242 217 249 224h47l-180 -154l202 -283h-81l-160 223c-6 8 -15 10 -24 3s-33 -29 -54 -48l1 -179l-69 -1z" />
    <glyph glyph-name="l" unicode="l" horiz-adv-x="274" 
d="M111 730l50 37c10 3 15 0 15 -9v-758h-65v730z" />
    <glyph glyph-name="m" unicode="m" horiz-adv-x="821" 
d="M438 359c33 49 93 89 156 89c65 0 125 -42 125 -122v-325h-68v300c0 80 -46 104 -85 104c-45 0 -86 -24 -123 -69c2 -11 3 -22 3 -35c0 -59 -1 -281 -1 -300h-67v300c0 77 -38 104 -85 104c-49 0 -85 -25 -121 -70c1 -103 0 -321 0 -334h-65v421l49 28c10 2 15 0 15 -9
c0 -2 0 -35 1 -78c28 37 86 85 140 85c68 0 111 -27 126 -89z" />
    <glyph glyph-name="n" unicode="n" horiz-adv-x="559" 
d="M172 363c30 41 86 84 146 84c61 0 139 -25 139 -129v-317h-69v298c0 77 -55 104 -89 104c-49 0 -89 -23 -126 -70c1 -103 1 -320 1 -333h-67v426l51 24c9 2 14 0 14 -9v-78z" />
    <glyph glyph-name="o" unicode="o" horiz-adv-x="520" 
d="M261 428c-56 0 -135 -33 -135 -212c0 -176 89 -208 130 -208c52 0 138 26 138 210c0 178 -82 210 -133 210zM258 454c110 0 220 -84 220 -232c0 -157 -108 -238 -220 -238c-122 0 -216 115 -216 230c0 157 124 240 216 240z" />
    <glyph glyph-name="p" unicode="p" horiz-adv-x="540" 
d="M172 373c33 36 81 74 132 74c93 0 194 -61 194 -209c0 -171 -102 -251 -184 -251c-72 0 -113 26 -142 66v-257h-66v652h66v-75zM172 337v-257c37 -46 76 -62 120 -62c50 0 127 30 127 198c0 179 -79 197 -125 197c-58 0 -96 -36 -122 -76z" />
    <glyph glyph-name="q" unicode="q" horiz-adv-x="512" 
d="M366 74c1 27 2 139 2 254c0 8 -4 26 -6 33c-14 31 -48 57 -106 57c-62 0 -132 -41 -132 -208c0 -169 76 -187 124 -187c49 0 80 19 118 51zM432 392v-599l-64 25c0 76 1 226 0 236c-42 -41 -76 -65 -130 -65c-84 0 -196 56 -196 219c0 149 108 240 204 240
c41 0 70 -20 94 -28c22 -7 20 -10 92 -28z" />
    <glyph glyph-name="r" unicode="r" horiz-adv-x="370" 
d="M105 429l51 23c8 4 13 -2 13 -8s2 -56 2 -56c45 93 240 73 193 19c-22 -26 -131 65 -192 -67c0 0 2 -326 2 -340h-69v429z" />
    <glyph glyph-name="s" unicode="s" horiz-adv-x="409" 
d="M220 450c101 -11 121 -96 97 -92c-20 7 -15 48 -96 62c-54 9 -88 -22 -94 -51c-8 -39 22 -61 57 -82c17 -11 85 -55 104 -69c45 -32 70 -86 62 -135c-12 -72 -99 -112 -171 -103c-107 14 -173 120 -132 121c13 0 50 -78 134 -91c55 -8 92 22 99 59c9 44 -4 66 -34 88
c-22 16 -56 28 -109 63c-44 29 -79 72 -64 144c14 77 87 93 147 86z" />
    <glyph glyph-name="t" unicode="t" horiz-adv-x="327" 
d="M155 583c10 0 10 -3 9 -11c0 -8 1 -145 1 -145h79v-27h-79v-306c4 -47 17 -66 55 -67c20 -1 54 -5 70 18c3 4 8 3 11 1c5 -3 3 -9 2 -14c-3 -25 -60 -49 -108 -47c-47 2 -99 24 -101 85l1 330s-55 2 -58 2c-6 -1 -12 3 -12 10s27 13 31 14c51 9 75 73 84 145
c1 9 9 12 15 12z" />
    <glyph glyph-name="u" unicode="u" horiz-adv-x="528" 
d="M86 415l65 34c7 4 12 0 12 -7c0 -8 -6 -264 -6 -293c0 -62 31 -114 93 -114c50 0 71 12 119 30l-1 382h68v-453l-47 1c-14 -1 -20 2 -20 11s3 12 2 38c-34 -24 -79 -56 -146 -56c-55 0 -139 29 -139 126v301z" />
    <glyph glyph-name="v" unicode="v" horiz-adv-x="496" 
d="M276 92c3 7 130 344 130 344h35l-177 -448c-2 -4 -2 -7 -5 -7h-15c-4 0 -6 1 -8 7l-182 446h73l137 -341c3 -8 10 -8 12 -1z" />
    <glyph glyph-name="w" unicode="w" horiz-adv-x="734" 
d="M62 437h69s120 -327 122 -335s9 -8 12 0l113 307h24s109 -304 111 -311s8 -6 10 0l121 339h34l-168 -445c-1 -4 -4 -8 -6 -8h-14c-2 0 -4 3 -6 8c0 0 -110 302 -111 306c-2 6 -7 6 -10 1c-5 -9 -108 -303 -108 -303c-2 -7 -4 -11 -8 -11h-13c-4 0 -6 1 -8 7z" />
    <glyph glyph-name="x" unicode="x" horiz-adv-x="490" 
d="M41 433h72c12 0 123 -154 133 -165c5 -6 14 -5 18 0c3 5 118 157 124 165h31c-8 -9 -138 -175 -143 -181c-6 -6 -7 -11 0 -19l182 -233h-77l-140 188c-6 8 -13 9 -17 4c-10 -14 -139 -182 -146 -192h-39c9 10 169 202 174 208c3 5 5 6 -2 14c-12 12 -160 199 -170 211z
" />
    <glyph glyph-name="y" unicode="y" horiz-adv-x="497" 
d="M403 431h33c-9 -24 -138 -372 -163 -431c-17 -41 -35 -77 -49 -98c-69 -101 -158 -101 -170 -81c-29 48 73 -3 140 85c10 14 29 57 48 94l-190 431h75s138 -330 141 -338s10 -8 12 -1s123 339 123 339z" />
    <glyph glyph-name="z" unicode="z" horiz-adv-x="400" 
d="M28 430h337c10 0 12 -4 12 -10c0 -8 -1 -13 -6 -19c-7 -8 -255 -354 -260 -359s-6 -10 0 -10h270v-33l-348 1c-9 0 -13 3 -13 8c0 2 0 4 2 7c6 9 263 374 268 382c3 4 5 12 -3 12h-259c1 4 -4 20 0 21z" />
    <glyph glyph-name="bar" unicode="|" horiz-adv-x="250" 
d="M98 782h54v-979h-54v979z" />
    <glyph glyph-name="braceright" unicode="}" horiz-adv-x="300" 
d="M24 742c8 0 30 0 46 -1c79 -4 136 -71 133 -157c-2 -60 -26 -160 -28 -212c-2 -42 12 -88 83 -88c6 0 13 2 20 2c8 0 12 -6 12 -15c0 -10 -6 -17 -12 -17c-7 0 -14 3 -20 3c-69 0 -85 -39 -79 -99c7 -70 23 -127 26 -224c2 -72 -40 -136 -117 -141c-20 -1 -51 -1 -58 -1
c-6 0 -9 6 -9 14s4 12 8 12c5 0 21 -3 37 -1c41 4 71 36 69 79c-3 73 -16 143 -20 216c-5 84 44 153 99 155c3 0 3 1 3 3s-1 3 -3 3c-55 2 -114 87 -105 177c6 62 23 116 28 200c2 37 -40 64 -81 65c-11 0 -26 -1 -32 -1s-8 5 -8 13s2 15 8 15z" />
    <glyph glyph-name="asciitilde" unicode="~" horiz-adv-x="496" 
d="M361 442c44 0 60 11 86 70l21 -9c-27 -78 -59 -120 -127 -120c-70 0 -126 103 -182 103c-51 0 -76 -17 -106 -81l-22 11c30 77 68 131 139 131c81 0 125 -105 191 -105z" />
    <glyph glyph-name="section" unicode="&#xa7;" horiz-adv-x="530" 
d="M247 423c-56 12 -134 -20 -134 -75c0 -35 16 -58 40 -83s114 -84 138 -101c66 -5 133 16 133 83c0 53 -51 86 -79 108s-75 51 -98 68zM265 743c196 0 153 -193 90 -76c0 34 -38 51 -87 51c-59 0 -116 -40 -116 -88c0 -65 54 -93 93 -117c52 -32 114 -65 150 -100
c56 -54 73 -104 73 -139c0 -94 -83 -130 -123 -130h-30c88 -50 123 -121 123 -185c0 -83 -86 -140 -156 -140c-249 0 -157 195 -105 80c0 -31 34 -54 88 -54c66 0 129 41 129 98c0 44 -32 86 -92 121c-58 34 -108 67 -158 108c-34 28 -74 81 -74 153c0 90 99 121 144 120
c-51 40 -107 85 -107 151c0 92 73 147 158 147z" />
    <glyph glyph-name="currency" unicode="&#xa4;" horiz-adv-x="551" 
d="M277 536c-75 0 -136 -61 -136 -136s61 -136 136 -136s136 61 136 136s-61 136 -136 136zM65 580l31 31l70 -70c30 24 69 39 111 39c41 0 79 -14 109 -38l69 69l31 -31l-68 -69c24 -30 39 -69 39 -111s-15 -80 -39 -111l68 -68l-31 -31l-68 68c-31 -24 -69 -38 -110 -38
c-42 0 -81 15 -112 39l-69 -69l-31 31l69 69c-23 31 -37 69 -37 110s14 80 38 110z" />
    <glyph glyph-name="quotesingle" unicode="'" horiz-adv-x="184" 
d="M86 762c24 0 45 -22 45 -38c0 -61 -26 -121 -32 -188c-1 -13 -4 -17 -13 -17c-8 0 -14 7 -15 17c-4 67 -28 127 -28 188c0 16 25 38 43 38z" />
    <glyph glyph-name="quotedblleft" unicode="&#x201c;" horiz-adv-x="392" 
d="M296 464c-26 0 -58 15 -72 53c-5 13 -6 30 -6 49c0 16 2 31 8 46c21 56 78 99 109 122c8 6 11 5 17 -1c6 -7 9 -12 5 -15c-32 -23 -59 -47 -80 -74c-11 -16 -17 -28 -17 -47c0 -14 11 -22 21 -23c39 -5 71 -22 71 -55c0 -30 -18 -55 -56 -55zM100 464
c-26 0 -58 15 -72 53c-5 13 -6 30 -6 49c0 16 2 31 8 46c21 56 78 99 109 122c8 6 11 5 17 -1c6 -7 9 -12 5 -15c-32 -23 -59 -47 -80 -74c-11 -16 -17 -28 -17 -47c0 -14 11 -22 21 -23c39 -5 71 -22 71 -55c0 -30 -18 -55 -56 -55z" />
    <glyph glyph-name="endash" unicode="&#x2013;" horiz-adv-x="500" 
d="M0 262h500v-47h-500v47z" />
    <glyph glyph-name="dagger" unicode="&#x2020;" horiz-adv-x="503" 
d="M253 790c30 0 45 -38 45 -68c0 -54 -30 -101 -30 -203c38 -16 86 -43 112 -37c-5 8 -9 16 -9 30c0 24 20 42 48 42c27 0 43 -18 43 -47c0 -33 -40 -53 -73 -53c-37 0 -85 8 -121 22c0 -24 10 -44 27 -62c7 -7 10 -11 10 -18c0 -8 -1 -10 -4 -22c-5 -22 -32 -308 -32 -540
c0 -12 -4 -14 -14 -14c-9 0 -13 3 -13 14c0 235 -31 520 -37 544c-3 12 -2 12 -2 16c0 6 3 10 8 18c14 23 26 34 23 77c-37 18 -90 50 -109 32c8 -11 10 -15 10 -29c0 -21 -22 -42 -49 -42c-20 0 -43 20 -43 44c0 32 34 58 92 58c28 0 70 -12 104 -22c-2 84 -32 139 -32 189
c0 35 16 71 46 71z" />
    <glyph glyph-name="periodcentered" unicode="&#xb7;" horiz-adv-x="235" 
d="M117 372c37 0 58 -26 58 -57s-22 -58 -57 -58c-33 0 -58 25 -58 55c0 34 22 60 57 60z" />
    <glyph glyph-name="paragraph" unicode="&#xb6;" horiz-adv-x="536" 
d="M507 766c5 0 8 -3 8 -8v-21c0 -6 -1 -9 -9 -9c-9 0 -56 2 -56 2c0 -341 1 -864 1 -876c0 -10 -2 -11 -8 -11c-11 0 -14 1 -26 1c-6 0 -8 2 -8 12v874h-94s2 -864 2 -874c0 -11 -1 -14 -10 -14h-23c-8 0 -9 2 -9 14s1 393 1 599h-52c-90 0 -155 38 -155 154
c0 140 100 157 188 154c43 -1 242 3 250 3z" />
    <glyph glyph-name="quotesinglbase" unicode="&#x201a;" horiz-adv-x="196" 
d="M88 102c26 0 58 -16 72 -54c5 -13 6 -29 6 -48c0 -16 -2 -32 -8 -46c-21 -56 -78 -99 -110 -122c-7 -6 -10 -6 -16 1s-9 12 -5 15c32 22 59 46 79 74c12 16 18 28 18 46c0 14 -11 22 -21 24c-39 4 -71 22 -71 55c0 29 18 55 56 55z" />
    <glyph glyph-name="quotedblbase" unicode="&#x201e;" horiz-adv-x="392" 
d="M282 102c26 0 58 -16 72 -54c5 -13 6 -29 6 -48c0 -16 -2 -32 -8 -46c-21 -56 -78 -99 -110 -122c-7 -6 -10 -6 -16 1s-9 12 -5 15c32 22 59 46 79 74c12 16 18 28 18 46c0 14 -11 22 -21 24c-39 4 -71 22 -71 55c0 29 18 55 56 55zM88 102c26 0 58 -16 72 -54
c5 -13 6 -29 6 -48c0 -16 -2 -32 -8 -46c-21 -56 -78 -99 -110 -122c-7 -6 -10 -6 -16 1s-9 12 -5 15c32 22 59 46 79 74c12 16 18 28 18 46c0 14 -11 22 -21 24c-39 4 -71 22 -71 55c0 29 18 55 56 55z" />
    <glyph glyph-name="quotedblright" unicode="&#x201d;" horiz-adv-x="392" 
d="M284 738c26 0 58 -16 72 -54c5 -13 6 -29 6 -48c0 -16 -2 -32 -8 -46c-21 -56 -78 -99 -110 -122c-7 -6 -10 -6 -16 1s-9 12 -5 15c32 22 59 46 79 74c12 16 18 28 18 46c0 14 -11 22 -21 24c-39 4 -71 22 -71 55c0 29 18 55 56 55zM88 738c26 0 58 -16 72 -54
c5 -13 6 -29 6 -48c0 -16 -2 -32 -8 -46c-21 -56 -78 -99 -110 -122c-7 -6 -10 -6 -16 1s-9 12 -5 15c32 22 59 46 79 74c12 16 18 28 18 46c0 14 -11 22 -21 24c-39 4 -71 22 -71 55c0 29 18 55 56 55z" />
    <glyph glyph-name="perthousand" unicode="&#x2030;" horiz-adv-x="1270" 
d="M1125 387c-67 0 -112 -69 -146 -156c-9 -23 -21 -72 -21 -100c0 -47 24 -78 76 -78c90 0 163 146 163 235c0 78 -37 99 -72 99zM1124 416c50 0 102 -31 102 -131c0 -109 -84 -261 -204 -261c-81 0 -132 72 -132 150c0 131 131 242 234 242zM266 640
c-54 0 -113 -75 -148 -150c-13 -28 -31 -81 -31 -109c0 -37 35 -65 65 -65c101 0 181 102 193 241c-25 9 -52 30 -50 75c-7 6 -17 8 -29 8zM752 387c-67 0 -112 -69 -146 -156c-9 -23 -21 -72 -21 -100c0 -47 25 -78 76 -78c90 0 163 146 163 235c0 78 -37 99 -72 99z
M751 416c49 0 102 -31 102 -131c0 -109 -83 -261 -204 -261c-81 0 -132 72 -132 150c0 131 131 242 234 242zM672 776c4 -2 7 -2 11 -5c5 -3 6 -5 2 -11c-66 -113 -473 -860 -479 -873s-12 -17 -19 -18c-7 0 -34 -2 -43 -2c-12 0 -12 13 -6 21c10 11 85 137 474 791
c-72 -69 -154 -130 -239 -126c-7 -134 -105 -263 -209 -263c-95 0 -135 75 -135 145c0 113 137 229 229 229c76 0 100 -46 111 -87c88 -2 155 45 249 139c13 14 32 38 43 55c4 6 7 7 11 5z" />
    <glyph glyph-name="questiondown" unicode="&#xbf;" horiz-adv-x="403" 
d="M261 -214c-62 1 -192 56 -192 192c0 140 112 198 180 198c-1 0 2 73 2 122c0 18 6 22 19 22c12 0 18 -4 19 -22c2 -54 3 -162 3 -176c0 -10 -6 -17 -14 -17c-74 0 -153 -57 -153 -143c0 -70 56 -125 124 -130c99 -7 111 106 127 90c27 -27 -12 -138 -115 -136zM265 418
c-37 0 -58 26 -58 57s22 58 57 58c33 0 58 -24 58 -55c0 -34 -22 -60 -57 -60z" />
    <glyph glyph-name="grave" unicode="`" horiz-adv-x="333" 
d="M117 637c29 0 53 -52 130 -141l-10 -12c-93 65 -151 92 -151 118c0 22 10 35 31 35z" />
    <glyph glyph-name="acute" unicode="&#xb4;" horiz-adv-x="333" 
d="M219 637c21 0 31 -13 31 -35c0 -26 -58 -53 -151 -118l-10 12c77 89 101 141 130 141z" />
    <glyph glyph-name="circumflex" unicode="&#x2c6;" horiz-adv-x="333" 
d="M163 670h18l123 -173l-16 -7l-116 101l-124 -100l-18 6z" />
    <glyph glyph-name="tilde" unicode="&#x2dc;" horiz-adv-x="333" 
d="M260 550c28 0 42 6 62 44l10 -4c-20 -52 -52 -90 -96 -90c-66 0 -98 60 -142 60c-32 0 -50 -8 -80 -56l-10 6c28 56 56 99 104 99c66 0 98 -59 152 -59z" />
    <glyph glyph-name="dieresis" unicode="&#xa8;" horiz-adv-x="333" 
d="M85 625c25 0 45 -19 45 -45c0 -28 -18 -45 -45 -45c-25 0 -45 21 -45 45c0 28 20 45 45 45zM248 625c25 0 45 -19 45 -45c0 -28 -18 -45 -45 -45c-25 0 -45 21 -45 45c0 28 20 45 45 45z" />
    <glyph glyph-name="emdash" unicode="&#x2014;" horiz-adv-x="1000" 
d="M0 262h1000v-47h-1000v47z" />
    <glyph glyph-name="AE" unicode="&#xc6;" horiz-adv-x="1046" 
d="M495 640l30 49c-4 12 -19 15 -32 15h-34c-8 0 -10 4 -10 12s0 14 12 14h98h69c125 0 248 1 255 1c12 0 34 2 41 2s13 -5 16 -10s52 -133 55 -140s4 -14 1 -15s-6 -5 -9 -7s-9 -6 -12 -1c-46 66 -87 118 -178 138c-15 4 -62 5 -94 5c-9 0 -24 -1 -37 -3
c-25 -5 -44 -26 -44 -51c0 -20 -2 -237 -2 -244c0 -9 1 -13 8 -13h84c71 0 110 32 127 98c2 7 6 6 9 6c4 0 10 -1 16 -2c4 0 5 -2 4 -8c0 -11 0 -70 1 -100c0 -45 0 -101 2 -125c0 -6 -1 -9 -6 -10s-10 -1 -16 -2c-5 0 -10 2 -11 7c-13 73 -55 102 -125 103h-80
c-5 0 -11 0 -11 -6v-260c0 -39 29 -65 68 -65h73c15 0 35 2 61 8c66 18 155 91 181 140c3 6 7 5 11 5s8 -4 10 -4s4 -5 3 -10s-51 -140 -52 -145c-2 -10 -7 -20 -17 -20c-140 -2 -359 -2 -377 -2s-138 -2 -147 -2c-10 0 -12 5 -12 12c0 8 5 13 12 13c8 1 44 3 49 3
c34 3 52 28 54 56c1 14 1 110 1 180c-94 0 -231 -1 -241 -1s-19 -3 -24 -10c-17 -27 -73 -115 -79 -126c-46 -68 -12 -101 49 -102c11 0 11 -7 11 -11c0 -6 -2 -12 -12 -12c-6 0 -27 2 -116 1c-76 -1 -87 -2 -99 -2s-13 3 -13 11c0 9 6 12 12 12c43 0 83 27 119 84zM540 659
c-94 -149 -203 -311 -226 -351c-6 -11 -5 -16 1 -16h225v367z" />
    <glyph glyph-name="ordfeminine" unicode="&#xaa;" horiz-adv-x="372" 
d="M219 581c-43 -7 -98 -18 -98 -67c0 -23 15 -39 40 -39s41 13 58 27v79zM262 505l6 -53c-24 0 -37 11 -45 32c-14 -13 -40 -34 -79 -34s-73 20 -73 56c0 61 84 86 146 92c2 1 3 1 3 4c0 34 1 70 -31 70c-22 0 -33 -10 -43 -15c-83 -42 -104 34 49 34c45 0 66 -19 66 -42
c0 -22 1 -131 1 -144z" />
    <glyph glyph-name="Oslash" unicode="&#xd8;" horiz-adv-x="786" 
d="M398 716c-75 0 -242 -23 -242 -348c0 -91 13 -158 33 -208l386 451c-53 87 -131 105 -177 105zM723 783l31 -27l-110 -128c56 -63 92 -149 92 -253c0 -242 -159 -387 -340 -387c-82 0 -162 33 -224 89l-100 -117l-34 24l105 122c-57 64 -93 150 -93 247
c0 253 180 393 339 393c81 0 162 -31 226 -89zM595 571l-387 -452c58 -99 149 -105 188 -105c71 0 234 39 234 348c0 90 -13 158 -35 209z" />
    <glyph glyph-name="ordmasculine" unicode="&#xba;" horiz-adv-x="373" 
d="M185 684c-31 0 -75 -16 -75 -109c0 -92 50 -109 72 -109c28 0 77 13 77 110c0 93 -46 108 -74 108zM313 578c0 -85 -64 -129 -130 -129c-72 0 -127 62 -127 125c0 84 73 129 128 129c65 0 129 -45 129 -125z" />
    <glyph glyph-name="ae" unicode="&#xe6;" horiz-adv-x="717" 
d="M502 426c-46 0 -111 -42 -118 -149h207c2 97 -22 149 -89 149zM374 387c37 41 70 67 128 67c118 0 172 -112 172 -199c0 -10 -1 -12 -10 -12h-281c0 -176 79 -217 141 -217c54 0 101 26 132 72c5 7 9 10 16 5c9 -6 10 -10 5 -17c-35 -54 -86 -102 -185 -102
c-75 0 -118 38 -153 100c-31 -44 -99 -87 -165 -87c-65 0 -121 35 -121 99c0 112 146 158 254 170c7 1 8 5 8 12c0 8 -1 63 -1 63c-1 37 -23 73 -62 73s-66 -9 -79 -31c-6 -11 -12 -35 -13 -43c-1 -16 -16 -43 -47 -43c-25 0 -41 15 -41 39c0 52 80 105 190 105
c62 0 102 -24 112 -54zM314 244c-74 -13 -184 -34 -184 -131c0 -48 28 -80 74 -80c44 0 88 25 110 60v151z" />
    <glyph glyph-name="oslash" unicode="&#xf8;" horiz-adv-x="520" 
d="M261 428c-56 0 -135 -33 -135 -212c0 -44 6 -79 15 -107l219 262c-28 46 -69 57 -99 57zM451 480l31 -27l-60 -72c34 -39 56 -92 56 -159c0 -157 -108 -238 -220 -238c-49 0 -93 18 -128 47l-62 -74l-34 24l66 79c-36 43 -58 99 -58 154c0 157 124 240 216 240
c48 0 95 -16 134 -45zM379 330l-219 -263c29 -48 72 -59 96 -59c52 0 138 26 138 210c0 47 -6 83 -15 112z" />
    <glyph glyph-name="germandbls" unicode="&#xdf;" horiz-adv-x="581" 
d="M179 -1l-72 3c0 74 -1 374 -1 524c0 32 5 58 8 74c28 128 114 168 190 168c120 0 190 -74 190 -184c0 -85 -80 -154 -176 -169c148 -9 228 -115 228 -223c0 -122 -86 -210 -180 -210c-136 0 -73 73 23 22c36 -19 78 54 78 160c0 136 -57 230 -207 240c-4 0 -6 3 -6 10
s2 9 6 9c110 7 156 76 156 167c0 93 -30 152 -118 152c-76 0 -116 -66 -120 -118c-1 -8 -4 -34 -4 -66c0 -128 7 -516 5 -559z" />
    <glyph glyph-name="divide" unicode="&#xf7;" horiz-adv-x="592" 
d="M296 219c25 0 45 -19 45 -45c0 -28 -18 -45 -45 -45c-25 0 -45 21 -45 45c0 28 20 45 45 45zM296 573c25 0 45 -19 45 -45c0 -28 -18 -45 -45 -45c-25 0 -45 21 -45 45c0 28 20 45 45 45zM61 378h476v-51h-476v51z" />
    <glyph glyph-name="onesuperior" unicode="&#xb9;" horiz-adv-x="346" 
d="M106 653c-6 0 -8 4 -8 9c0 4 2 6 5 6c43 8 46 18 77 36c2 1 4 1 6 1c4 0 7 -3 7 -7v-1c-2 -11 -3 -39 -2 -356h-44v276c0 30 -2 40 -14 37c-6 -1 -18 -1 -27 -1z" />
    <glyph glyph-name="multiply" unicode="&#xd7;" horiz-adv-x="592" 
d="M118 501l37 37l147 -147l148 148l36 -36l-148 -148l146 -146l-37 -37l-146 146l-152 -152l-36 36l152 152z" />
    <glyph glyph-name="registered" unicode="&#xae;" horiz-adv-x="780" 
d="M375 532c-25 0 -58 0 -58 -27v-125h32c18 0 33 0 40 1c35 3 72 25 72 71c0 44 -20 80 -86 80zM230 191c-10 0 -16 2 -16 11c0 6 4 10 12 11c10 1 24 3 28 4c6 1 11 9 11 21v266c0 23 -7 25 -35 25c-9 0 -14 2 -14 11c0 10 8 12 15 12s20 -1 62 -1c37 0 74 2 88 2
c92 0 141 -45 141 -101c0 -52 -50 -80 -93 -90c31 -55 65 -115 75 -128s29 -21 43 -22c6 -1 10 -3 10 -10s-3 -8 -11 -8h-76c-2 0 -3 0 -4 2l-93 163l-56 -1c0 -48 -1 -101 -1 -118c0 -24 28 -28 45 -28c9 0 13 -1 13 -8c0 -6 -4 -11 -12 -11h-49s-81 -2 -83 -2zM377 656
c-158 0 -286 -129 -286 -286s128 -286 286 -286c157 0 286 129 286 286s-129 286 -286 286zM377 694c178 0 324 -146 324 -324s-146 -324 -324 -324c-179 0 -324 146 -324 324s145 324 324 324z" />
    <glyph glyph-name="Thorn" unicode="&#xde;" horiz-adv-x="656" 
d="M504 377c0 84 -10 152 -133 173c-25 4 -99 3 -124 3c-14 0 -20 -2 -20 -17c0 -33 -1 -301 -1 -308s3 -10 10 -10c32 0 91 1 113 1c92 3 155 52 155 158zM224 577c35 1 83 1 148 1c92 0 234 -65 234 -195c0 -137 -140 -195 -266 -195v0v0c-53 0 -95 1 -103 1
c-9 0 -10 -3 -10 -9c0 -9 -1 -137 -1 -174l-84 -1v725h82v-153z" />
    <glyph glyph-name="Eth" unicode="&#xd0;" horiz-adv-x="773" 
d="M60 393h90c38 0 216 1 220 1c10 0 14 -4 14 -11v-13c0 -8 -8 -14 -14 -14c-8 0 -170 3 -219 3c-43 0 -83 -1 -89 -1c-5 0 -13 3 -13 8v16c0 5 4 11 11 11zM357 0c-117 0 -170 2 -199 2c-32 0 -84 -2 -111 -2c-10 0 -11 3 -11 15c0 8 3 10 11 10c19 0 38 4 53 8
c19 5 40 19 40 68c0 29 -3 511 -3 537c0 37 -23 49 -44 55c-8 2 -22 5 -41 5c-11 0 -17 5 -17 14c0 12 4 15 12 15c13 0 53 -1 133 -1c34 0 111 2 208 2c115 0 335 -100 335 -358c0 -246 -172 -370 -366 -370zM284 24c18 -2 66 -2 124 4c90 10 213 70 213 335
c0 225 -83 323 -227 336c-25 2 -66 4 -91 4c-35 0 -78 -9 -78 -65c0 -33 -1 -494 -1 -542c0 -46 22 -70 60 -72z" />
    <glyph glyph-name="plusminus" unicode="&#xb1;" horiz-adv-x="592" 
d="M61 68h476v-51h-476v51zM276 586h52v-208h209v-51h-209v-207h-52v207h-215v51h215v208z" />
    <glyph glyph-name="thorn" unicode="&#xfe;" horiz-adv-x="540" 
d="M172 373c33 36 81 74 132 74c93 0 194 -61 194 -209c0 -171 -102 -251 -184 -251c-72 0 -113 26 -142 66v-183l-65 7v870l51 17c9 2 14 0 14 -9v-382zM172 337v-257c37 -46 76 -62 120 -62c50 0 127 30 127 198c0 179 -79 197 -125 197c-58 0 -96 -36 -122 -76z" />
    <glyph glyph-name="copyright" unicode="&#xa9;" horiz-adv-x="780" 
d="M529 454c4 -6 -11 -8 -15 -9c-4 -2 -8 1 -10 4c-23 36 -70 85 -120 85c-52 0 -121 -33 -121 -171c0 -129 76 -155 126 -155c67 0 99 30 130 89c3 5 8 7 12 5c5 -2 7 -4 11 -7s2 -7 1 -8c-25 -65 -84 -110 -156 -110c-97 0 -193 60 -193 185c0 124 102 197 186 197
c30 0 85 -9 149 -105zM377 656c-158 0 -286 -129 -286 -286s128 -286 286 -286c157 0 286 129 286 286s-129 286 -286 286zM377 694c178 0 324 -146 324 -324s-146 -324 -324 -324c-179 0 -324 146 -324 324s145 324 324 324z" />
    <glyph glyph-name="twosuperior" unicode="&#xb2;" horiz-adv-x="365" 
d="M302 430c4 0 10 -3 10 -7v-2l-25 -89c-1 -1 -1 -2 -3 -2h-237c-1 0 -2 2 -3 3v18v1c47 68 110 121 157 166c33 31 52 62 52 97c0 47 -31 72 -67 72c-46 0 -78 -19 -78 -39c0 -19 17 -22 17 -42c0 -22 -14 -31 -31 -31c-16 0 -38 12 -38 36c0 51 60 96 128 96
c70 0 124 -30 124 -94c0 -58 -36 -85 -81 -118c-49 -35 -104 -78 -137 -121c-1 -1 -2 -2 -2 -3v0s0 -1 1 -1h132c44 0 59 31 74 56c1 2 3 4 7 4z" />
    <glyph glyph-name="threesuperior" unicode="&#xb3;" horiz-adv-x="362" 
d="M303 626c0 -45 -36 -76 -88 -93c52 -10 102 -34 102 -98c0 -62 -66 -109 -141 -109c-96 0 -125 51 -125 76c0 22 18 34 33 34c19 0 33 -8 33 -26c0 -17 -9 -23 -9 -32c0 -15 13 -35 67 -35c41 0 87 23 87 88s-45 92 -89 92c-15 0 -25 -5 -34 -5c-10 0 -15 5 -15 14
s7 14 15 14c11 0 16 -4 33 -4c42 0 77 23 77 81c0 52 -35 72 -69 72c-35 0 -57 -16 -57 -34c0 -10 6 -14 6 -27c0 -17 -9 -28 -30 -28c-18 0 -30 10 -30 29c0 39 55 77 112 77c65 0 122 -27 122 -86z" />
    <glyph glyph-name="Aacute" unicode="&#xc1;" horiz-adv-x="768" 
d="M357 659c-49 -137 -121 -341 -126 -351s0 -16 6 -16h249zM339 708l68 31c9 0 14 -3 16 -11l256 -728h-92l-87 262c-105 0 -259 -1 -269 -1s-19 -3 -21 -10c-4 -9 -46 -118 -87 -253c-75 -1 -31 2 -43 2zM429 907c21 0 31 -13 31 -35c0 -26 -58 -53 -151 -118l-10 12
c77 89 101 141 130 141z" />
    <glyph glyph-name="Acircumflex" unicode="&#xc2;" horiz-adv-x="768" 
d="M357 659c-49 -137 -121 -341 -126 -351s0 -16 6 -16h249zM339 708l68 31c9 0 14 -3 16 -11l256 -728h-92l-87 262c-105 0 -259 -1 -269 -1s-19 -3 -21 -10c-4 -9 -46 -118 -87 -253c-75 -1 -31 2 -43 2zM383 890h18l123 -173l-16 -7l-116 101l-124 -100l-18 6z" />
    <glyph glyph-name="Adieresis" unicode="&#xc4;" horiz-adv-x="768" 
d="M357 659c-49 -137 -121 -341 -126 -351s0 -16 6 -16h249zM339 708l68 31c9 0 14 -3 16 -11l256 -728h-92l-87 262c-105 0 -259 -1 -269 -1s-19 -3 -21 -10c-4 -9 -46 -118 -87 -253c-75 -1 -31 2 -43 2zM305 865c25 0 45 -19 45 -45c0 -28 -18 -45 -45 -45
c-25 0 -45 21 -45 45c0 28 20 45 45 45zM468 865c25 0 45 -19 45 -45c0 -28 -18 -45 -45 -45c-25 0 -45 21 -45 45c0 28 20 45 45 45z" />
    <glyph glyph-name="Agrave" unicode="&#xc0;" horiz-adv-x="768" 
d="M357 659c-49 -137 -121 -341 -126 -351s0 -16 6 -16h249zM339 708l68 31c9 0 14 -3 16 -11l256 -728h-92l-87 262c-105 0 -259 -1 -269 -1s-19 -3 -21 -10c-4 -9 -46 -118 -87 -253c-75 -1 -31 2 -43 2zM337 897c29 0 53 -52 130 -141l-10 -12c-93 65 -151 92 -151 118
c0 22 10 35 31 35z" />
    <glyph glyph-name="Aring" unicode="&#xc5;" horiz-adv-x="768" 
d="M357 659c-49 -137 -121 -341 -126 -351s0 -16 6 -16h249zM339 708l68 31c9 0 14 -3 16 -11l256 -728h-92l-87 262c-105 0 -259 -1 -269 -1s-19 -3 -21 -10c-4 -9 -46 -118 -87 -253c-75 -1 -31 2 -43 2zM377 906c-33 0 -61 -28 -61 -61s28 -61 61 -61s61 28 61 61
s-28 61 -61 61zM377 935c49 0 90 -41 90 -90c0 -50 -41 -90 -90 -90s-90 41 -90 90s41 90 90 90z" />
    <glyph glyph-name="Atilde" unicode="&#xc3;" horiz-adv-x="768" 
d="M357 659c-49 -137 -121 -341 -126 -351s0 -16 6 -16h249zM339 708l68 31c9 0 14 -3 16 -11l256 -728h-92l-87 262c-105 0 -259 -1 -269 -1s-19 -3 -21 -10c-4 -9 -46 -118 -87 -253c-75 -1 -31 2 -43 2zM470 820c28 0 42 6 62 44l10 -4c-20 -52 -52 -90 -96 -90
c-66 0 -98 60 -142 60c-32 0 -50 -8 -80 -56l-10 6c28 56 56 99 104 99c66 0 98 -59 152 -59z" />
    <glyph glyph-name="Eacute" unicode="&#xc9;" horiz-adv-x="675" 
d="M133 2v729l513 -1v-26h-372c-30 0 -44 -8 -44 -40c0 -20 -3 -252 -3 -259c0 -9 1 -13 8 -13h91v-24h-87c-5 0 -11 -2 -11 -8l1 -267c0 -39 7 -61 46 -61h371v-30c-5 -1 -480 0 -513 0zM419 907c21 0 31 -13 31 -35c0 -26 -58 -53 -151 -118l-10 12c77 89 101 141 130 141
z" />
    <glyph glyph-name="Ecircumflex" unicode="&#xca;" horiz-adv-x="675" 
d="M133 2v729l513 -1v-26h-372c-30 0 -44 -8 -44 -40c0 -20 -3 -252 -3 -259c0 -9 1 -13 8 -13h91v-24h-87c-5 0 -11 -2 -11 -8l1 -267c0 -39 7 -61 46 -61h371v-30c-5 -1 -480 0 -513 0zM343 930h18l123 -173l-16 -7l-116 101l-124 -100l-18 6z" />
    <glyph glyph-name="Edieresis" unicode="&#xcb;" horiz-adv-x="675" 
d="M133 2v729l513 -1v-26h-372c-30 0 -44 -8 -44 -40c0 -20 -3 -252 -3 -259c0 -9 1 -13 8 -13h91v-24h-87c-5 0 -11 -2 -11 -8l1 -267c0 -39 7 -61 46 -61h371v-30c-5 -1 -480 0 -513 0zM270 865c25 0 45 -19 45 -45c0 -28 -18 -45 -45 -45c-25 0 -45 21 -45 45
c0 28 20 45 45 45zM433 865c25 0 45 -19 45 -45c0 -28 -18 -45 -45 -45c-25 0 -45 21 -45 45c0 28 20 45 45 45z" />
    <glyph glyph-name="Egrave" unicode="&#xc8;" horiz-adv-x="675" 
d="M133 2v729l513 -1v-26h-372c-30 0 -44 -8 -44 -40c0 -20 -3 -252 -3 -259c0 -9 1 -13 8 -13h91v-24h-87c-5 0 -11 -2 -11 -8l1 -267c0 -39 7 -61 46 -61h371v-30c-5 -1 -480 0 -513 0zM297 897c29 0 53 -52 130 -141l-10 -12c-93 65 -151 92 -151 118c0 22 10 35 31 35z
" />
    <glyph glyph-name="Iacute" unicode="&#xcd;" horiz-adv-x="384" 
d="M235 730v-732h-85l1 732h84zM259 897c21 0 31 -13 31 -35c0 -26 -58 -53 -151 -118l-10 12c77 89 101 141 130 141z" />
    <glyph glyph-name="Icircumflex" unicode="&#xce;" horiz-adv-x="384" 
d="M235 730v-732h-85l1 732h84zM183 930h18l123 -173l-16 -7l-116 101l-124 -100l-18 6z" />
    <glyph glyph-name="Idieresis" unicode="&#xcf;" horiz-adv-x="384" 
d="M235 730v-732h-85l1 732h84zM113 865c25 0 45 -19 45 -45c0 -28 -18 -45 -45 -45c-25 0 -45 21 -45 45c0 28 20 45 45 45zM276 865c25 0 45 -19 45 -45c0 -28 -18 -45 -45 -45c-25 0 -45 21 -45 45c0 28 20 45 45 45z" />
    <glyph glyph-name="Igrave" unicode="&#xcc;" horiz-adv-x="384" 
d="M235 730v-732h-85l1 732h84zM117 897c29 0 53 -52 130 -141l-10 -12c-93 65 -151 92 -151 118c0 22 10 35 31 35z" />
    <glyph glyph-name="Ntilde" unicode="&#xd1;" horiz-adv-x="820" 
d="M152 732h72c8 0 12 -2 16 -8c6 -8 396 -555 402 -563c4 -5 11 -4 11 3v568h34c0 -81 -2 -681 -1 -698v-39c0 -6 -2 -9 -12 -9c-12 0 -14 2 -18 8c-22 42 -264 365 -462 635c-1 2 -8 5 -8 -1v-628h-34v732zM495 820c28 0 42 6 62 44l10 -4c-20 -52 -52 -90 -96 -90
c-66 0 -98 60 -142 60c-32 0 -50 -8 -80 -56l-10 6c28 56 56 99 104 99c66 0 98 -59 152 -59z" />
    <glyph glyph-name="Oacute" unicode="&#xd3;" horiz-adv-x="786" 
d="M398 716c-75 0 -242 -23 -242 -348c0 -341 181 -354 240 -354c71 0 234 39 234 348c0 306 -158 354 -232 354zM389 746c171 0 347 -141 347 -371c0 -242 -159 -387 -340 -387c-180 0 -346 157 -346 365c0 253 180 393 339 393zM469 907c21 0 31 -13 31 -35
c0 -26 -58 -53 -151 -118l-10 12c77 89 101 141 130 141z" />
    <glyph glyph-name="Ocircumflex" unicode="&#xd4;" horiz-adv-x="786" 
d="M398 716c-75 0 -242 -23 -242 -348c0 -341 181 -354 240 -354c71 0 234 39 234 348c0 306 -158 354 -232 354zM389 746c171 0 347 -141 347 -371c0 -242 -159 -387 -340 -387c-180 0 -346 157 -346 365c0 253 180 393 339 393zM382 930h18l123 -173l-16 -7l-116 101
l-124 -100l-18 6z" />
    <glyph glyph-name="Odieresis" unicode="&#xd6;" horiz-adv-x="786" 
d="M398 716c-75 0 -242 -23 -242 -348c0 -341 181 -354 240 -354c71 0 234 39 234 348c0 306 -158 354 -232 354zM389 746c171 0 347 -141 347 -371c0 -242 -159 -387 -340 -387c-180 0 -346 157 -346 365c0 253 180 393 339 393zM308 865c25 0 45 -19 45 -45
c0 -28 -18 -45 -45 -45c-25 0 -45 21 -45 45c0 28 20 45 45 45zM471 865c25 0 45 -19 45 -45c0 -28 -18 -45 -45 -45c-25 0 -45 21 -45 45c0 28 20 45 45 45z" />
    <glyph glyph-name="Ograve" unicode="&#xd2;" horiz-adv-x="786" 
d="M398 716c-75 0 -242 -23 -242 -348c0 -341 181 -354 240 -354c71 0 234 39 234 348c0 306 -158 354 -232 354zM389 746c171 0 347 -141 347 -371c0 -242 -159 -387 -340 -387c-180 0 -346 157 -346 365c0 253 180 393 339 393zM337 907c29 0 53 -52 130 -141l-10 -12
c-93 65 -151 92 -151 118c0 22 10 35 31 35z" />
    <glyph glyph-name="Otilde" unicode="&#xd5;" horiz-adv-x="786" 
d="M398 716c-75 0 -242 -23 -242 -348c0 -341 181 -354 240 -354c71 0 234 39 234 348c0 306 -158 354 -232 354zM389 746c171 0 347 -141 347 -371c0 -242 -159 -387 -340 -387c-180 0 -346 157 -346 365c0 253 180 393 339 393zM492 820c28 0 42 6 62 44l10 -4
c-20 -52 -52 -90 -96 -90c-66 0 -98 60 -142 60c-32 0 -50 -8 -80 -56l-10 6c28 56 56 99 104 99c66 0 98 -59 152 -59z" />
    <glyph glyph-name="Scaron" unicode="&#x160;" horiz-adv-x="594" 
d="M268 745c132 4 193 -45 229 -123c2 -5 1 -7 -2 -9c-5 -2 -14 -10 -18 -1c-49 84 -113 106 -207 105c-81 -1 -139 -58 -139 -124c0 -68 53 -106 115 -127c64 -22 118 -35 168 -57c62 -27 130 -87 130 -201c0 -120 -113 -216 -288 -213c-104 2 -218 121 -208 138
c3 5 2 6 5 7c24 4 100 -106 208 -106c122 0 218 61 220 151c3 112 -148 141 -243 175c-50 18 -169 59 -169 190c0 115 102 192 199 195zM301 763h-18l-123 173l16 7l116 -101l124 100l18 -6z" />
    <glyph glyph-name="Uacute" unicode="&#xda;" horiz-adv-x="814" 
d="M134 729h88v-466c0 -167 78 -245 198 -245c173 0 225 110 225 232v479h37v-479c0 -157 -87 -265 -261 -265s-287 78 -287 248v496zM509 897c21 0 31 -13 31 -35c0 -26 -58 -53 -151 -118l-10 12c77 89 101 141 130 141z" />
    <glyph glyph-name="Ucircumflex" unicode="&#xdb;" horiz-adv-x="814" 
d="M134 729h88v-466c0 -167 78 -245 198 -245c173 0 225 110 225 232v479h37v-479c0 -157 -87 -265 -261 -265s-287 78 -287 248v496zM423 930h18l123 -173l-16 -7l-116 101l-124 -100l-18 6z" />
    <glyph glyph-name="Udieresis" unicode="&#xdc;" horiz-adv-x="814" 
d="M134 729h88v-466c0 -167 78 -245 198 -245c173 0 225 110 225 232v479h37v-479c0 -157 -87 -265 -261 -265s-287 78 -287 248v496zM345 865c25 0 45 -19 45 -45c0 -28 -18 -45 -45 -45c-25 0 -45 21 -45 45c0 28 20 45 45 45zM508 865c25 0 45 -19 45 -45
c0 -28 -18 -45 -45 -45c-25 0 -45 21 -45 45c0 28 20 45 45 45z" />
    <glyph glyph-name="Ugrave" unicode="&#xd9;" horiz-adv-x="814" 
d="M134 729h88v-466c0 -167 78 -245 198 -245c173 0 225 110 225 232v479h37v-479c0 -157 -87 -265 -261 -265s-287 78 -287 248v496zM377 897c29 0 53 -52 130 -141l-10 -12c-93 65 -151 92 -151 118c0 22 10 35 31 35z" />
    <glyph glyph-name="Yacute" unicode="&#xdd;" horiz-adv-x="755" 
d="M405 345c69 112 229 368 238 385h41c-12 -15 -202 -316 -260 -419v-310h-86v294l-263 435h108c0 -4 39 -76 222 -385zM469 897c21 0 31 -13 31 -35c0 -26 -58 -53 -151 -118l-10 12c77 89 101 141 130 141z" />
    <glyph glyph-name="Zcaron" unicode="&#x17d;" horiz-adv-x="557" 
d="M24 699v27h494c9 0 9 -15 4 -22l-395 -663l426 -1v-40h-519c-17 0 -19 19 -12 29c165 256 270 420 410 670h-408zM311 763h-18l-123 173l16 7l116 -101l124 100l18 -6z" />
    <glyph glyph-name="aacute" unicode="&#xe1;" horiz-adv-x="456" 
d="M308 245c-74 -14 -179 -34 -179 -132c0 -48 30 -88 74 -80c48 9 71 15 105 28v184zM217 444c131 0 155 -101 155 -168v-276h-53l-12 32c-33 -12 -67 -35 -133 -35s-120 45 -120 109c0 112 139 148 246 160c8 1 9 5 9 12c0 8 1 38 1 38c-1 37 -24 93 -93 96
c-102 0 -102 -66 -127 -60c-26 12 29 91 127 92zM289 637c21 0 31 -13 31 -35c0 -26 -58 -53 -151 -118l-10 12c77 89 101 141 130 141z" />
    <glyph glyph-name="acircumflex" unicode="&#xe2;" horiz-adv-x="456" 
d="M308 245c-74 -14 -179 -34 -179 -132c0 -48 30 -88 74 -80c48 9 71 15 105 28v184zM217 444c131 0 155 -101 155 -168v-276h-53l-12 32c-33 -12 -67 -35 -133 -35s-120 45 -120 109c0 112 139 148 246 160c8 1 9 5 9 12c0 8 1 38 1 38c-1 37 -24 93 -93 96
c-102 0 -102 -66 -127 -60c-26 12 29 91 127 92zM216 670h18l123 -173l-16 -7l-116 101l-124 -100l-18 6z" />
    <glyph glyph-name="adieresis" unicode="&#xe4;" horiz-adv-x="456" 
d="M308 245c-74 -14 -179 -34 -179 -132c0 -48 30 -88 74 -80c48 9 71 15 105 28v184zM217 444c131 0 155 -101 155 -168v-276h-53l-12 32c-33 -12 -67 -35 -133 -35s-120 45 -120 109c0 112 139 148 246 160c8 1 9 5 9 12c0 8 1 38 1 38c-1 37 -24 93 -93 96
c-102 0 -102 -66 -127 -60c-26 12 29 91 127 92zM150 625c25 0 45 -19 45 -45c0 -28 -18 -45 -45 -45c-25 0 -45 21 -45 45c0 28 20 45 45 45zM313 625c25 0 45 -19 45 -45c0 -28 -18 -45 -45 -45c-25 0 -45 21 -45 45c0 28 20 45 45 45z" />
    <glyph glyph-name="agrave" unicode="&#xe0;" horiz-adv-x="456" 
d="M308 245c-74 -14 -179 -34 -179 -132c0 -48 30 -88 74 -80c48 9 71 15 105 28v184zM217 444c131 0 155 -101 155 -168v-276h-53l-12 32c-33 -12 -67 -35 -133 -35s-120 45 -120 109c0 112 139 148 246 160c8 1 9 5 9 12c0 8 1 38 1 38c-1 37 -24 93 -93 96
c-102 0 -102 -66 -127 -60c-26 12 29 91 127 92zM197 637c29 0 53 -52 130 -141l-10 -12c-93 65 -151 92 -151 118c0 22 10 35 31 35z" />
    <glyph glyph-name="aring" unicode="&#xe5;" horiz-adv-x="456" 
d="M308 245c-74 -14 -179 -34 -179 -132c0 -48 30 -88 74 -80c48 9 71 15 105 28v184zM217 444c131 0 155 -101 155 -168v-276h-53l-12 32c-33 -12 -67 -35 -133 -35s-120 45 -120 109c0 112 139 148 246 160c8 1 9 5 9 12c0 8 1 38 1 38c-1 37 -24 93 -93 96
c-102 0 -102 -66 -127 -60c-26 12 29 91 127 92zM237 626c-33 0 -61 -28 -61 -61s28 -61 61 -61s61 28 61 61s-28 61 -61 61zM237 655c49 0 90 -41 90 -90c0 -50 -41 -90 -90 -90s-90 41 -90 90s41 90 90 90z" />
    <glyph glyph-name="atilde" unicode="&#xe3;" horiz-adv-x="456" 
d="M308 245c-74 -14 -179 -34 -179 -132c0 -48 30 -88 74 -80c48 9 71 15 105 28v184zM217 444c131 0 155 -101 155 -168v-276h-53l-12 32c-33 -12 -67 -35 -133 -35s-120 45 -120 109c0 112 139 148 246 160c8 1 9 5 9 12c0 8 1 38 1 38c-1 37 -24 93 -93 96
c-102 0 -102 -66 -127 -60c-26 12 29 91 127 92zM329 550c28 0 42 6 62 44l10 -4c-20 -52 -52 -90 -96 -90c-66 0 -98 60 -142 60c-32 0 -50 -8 -80 -56l-10 6c28 56 56 99 104 99c66 0 98 -59 152 -59z" />
    <glyph glyph-name="eacute" unicode="&#xe9;" horiz-adv-x="472" 
d="M251 426c-56 2 -123 -51 -130 -158h231c2 97 -49 156 -101 158zM251 454c118 0 178 -112 178 -199c0 -10 -1 -12 -10 -12h-297c0 -176 95 -217 157 -217c54 0 101 26 132 72c5 7 9 10 16 5c9 -6 10 -10 5 -17c-35 -54 -86 -102 -185 -102c-115 0 -205 95 -205 216
c0 136 87 254 209 254zM289 637c21 0 31 -13 31 -35c0 -26 -58 -53 -151 -118l-10 12c77 89 101 141 130 141z" />
    <glyph glyph-name="ecircumflex" unicode="&#xea;" horiz-adv-x="472" 
d="M251 426c-56 2 -123 -51 -130 -158h231c2 97 -49 156 -101 158zM251 454c118 0 178 -112 178 -199c0 -10 -1 -12 -10 -12h-297c0 -176 95 -217 157 -217c54 0 101 26 132 72c5 7 9 10 16 5c9 -6 10 -10 5 -17c-35 -54 -86 -102 -185 -102c-115 0 -205 95 -205 216
c0 136 87 254 209 254zM241 670h18l123 -173l-16 -7l-116 101l-124 -100l-18 6z" />
    <glyph glyph-name="edieresis" unicode="&#xeb;" horiz-adv-x="472" 
d="M251 426c-56 2 -123 -51 -130 -158h231c2 97 -49 156 -101 158zM251 454c118 0 178 -112 178 -199c0 -10 -1 -12 -10 -12h-297c0 -176 95 -217 157 -217c54 0 101 26 132 72c5 7 9 10 16 5c9 -6 10 -10 5 -17c-35 -54 -86 -102 -185 -102c-115 0 -205 95 -205 216
c0 136 87 254 209 254zM165 625c25 0 45 -19 45 -45c0 -28 -18 -45 -45 -45c-25 0 -45 21 -45 45c0 28 20 45 45 45zM328 625c25 0 45 -19 45 -45c0 -28 -18 -45 -45 -45c-25 0 -45 21 -45 45c0 28 20 45 45 45z" />
    <glyph glyph-name="egrave" unicode="&#xe8;" horiz-adv-x="472" 
d="M251 426c-56 2 -123 -51 -130 -158h231c2 97 -49 156 -101 158zM251 454c118 0 178 -112 178 -199c0 -10 -1 -12 -10 -12h-297c0 -176 95 -217 157 -217c54 0 101 26 132 72c5 7 9 10 16 5c9 -6 10 -10 5 -17c-35 -54 -86 -102 -185 -102c-115 0 -205 95 -205 216
c0 136 87 254 209 254zM177 637c29 0 53 -52 130 -141l-10 -12c-93 65 -151 92 -151 118c0 22 10 35 31 35z" />
    <glyph glyph-name="iacute" unicode="&#xed;" horiz-adv-x="278" 
d="M111 426l53 24c8 4 14 0 14 -9v-440h-67v425zM189 637c21 0 31 -13 31 -35c0 -26 -58 -53 -151 -118l-10 12c77 89 101 141 130 141z" />
    <glyph glyph-name="icircumflex" unicode="&#xee;" horiz-adv-x="278" 
d="M111 426l53 24c8 4 14 0 14 -9v-440h-67v425zM128 670h18l123 -173l-16 -7l-116 101l-124 -100l-18 6z" />
    <glyph glyph-name="idieresis" unicode="&#xef;" horiz-adv-x="278" 
d="M111 426l53 24c8 4 14 0 14 -9v-440h-67v425zM50 625c25 0 45 -19 45 -45c0 -28 -18 -45 -45 -45c-25 0 -45 21 -45 45c0 28 20 45 45 45zM213 625c25 0 45 -19 45 -45c0 -28 -18 -45 -45 -45c-25 0 -45 21 -45 45c0 28 20 45 45 45z" />
    <glyph glyph-name="igrave" unicode="&#xec;" horiz-adv-x="278" 
d="M111 426l53 24c8 4 14 0 14 -9v-440h-67v425zM67 637c29 0 53 -52 130 -141l-10 -12c-93 65 -151 92 -151 118c0 22 10 35 31 35z" />
    <glyph glyph-name="ntilde" unicode="&#xf1;" horiz-adv-x="559" 
d="M172 363c30 41 86 84 146 84c61 0 139 -25 139 -129v-317h-69v298c0 77 -55 104 -89 104c-49 0 -89 -23 -126 -70c1 -103 1 -320 1 -333h-67v426l51 24c9 2 14 0 14 -9v-78zM370 550c28 0 42 6 62 44l10 -4c-20 -52 -52 -90 -96 -90c-66 0 -98 60 -142 60
c-32 0 -50 -8 -80 -56l-10 6c28 56 56 99 104 99c66 0 98 -59 152 -59z" />
    <glyph glyph-name="oacute" unicode="&#xf3;" horiz-adv-x="520" 
d="M261 428c-56 0 -135 -33 -135 -212c0 -176 89 -208 130 -208c52 0 138 26 138 210c0 178 -82 210 -133 210zM258 454c110 0 220 -84 220 -232c0 -157 -108 -238 -220 -238c-122 0 -216 115 -216 230c0 157 124 240 216 240zM307 637c21 0 31 -13 31 -35
c0 -26 -58 -53 -151 -118l-10 12c77 89 101 141 130 141z" />
    <glyph glyph-name="ocircumflex" unicode="&#xf4;" horiz-adv-x="520" 
d="M261 428c-56 0 -135 -33 -135 -212c0 -176 89 -208 130 -208c52 0 138 26 138 210c0 178 -82 210 -133 210zM258 454c110 0 220 -84 220 -232c0 -157 -108 -238 -220 -238c-122 0 -216 115 -216 230c0 157 124 240 216 240zM245 670h18l123 -173l-16 -7l-116 101
l-124 -100l-18 6z" />
    <glyph glyph-name="odieresis" unicode="&#xf6;" horiz-adv-x="520" 
d="M261 428c-56 0 -135 -33 -135 -212c0 -176 89 -208 130 -208c52 0 138 26 138 210c0 178 -82 210 -133 210zM258 454c110 0 220 -84 220 -232c0 -157 -108 -238 -220 -238c-122 0 -216 115 -216 230c0 157 124 240 216 240zM175 625c25 0 45 -19 45 -45
c0 -28 -18 -45 -45 -45c-25 0 -45 21 -45 45c0 28 20 45 45 45zM338 625c25 0 45 -19 45 -45c0 -28 -18 -45 -45 -45c-25 0 -45 21 -45 45c0 28 20 45 45 45z" />
    <glyph glyph-name="ograve" unicode="&#xf2;" horiz-adv-x="520" 
d="M261 428c-56 0 -135 -33 -135 -212c0 -176 89 -208 130 -208c52 0 138 26 138 210c0 178 -82 210 -133 210zM258 454c110 0 220 -84 220 -232c0 -157 -108 -238 -220 -238c-122 0 -216 115 -216 230c0 157 124 240 216 240zM187 637c29 0 53 -52 130 -141l-10 -12
c-93 65 -151 92 -151 118c0 22 10 35 31 35z" />
    <glyph glyph-name="otilde" unicode="&#xf5;" horiz-adv-x="520" 
d="M261 428c-56 0 -135 -33 -135 -212c0 -176 89 -208 130 -208c52 0 138 26 138 210c0 178 -82 210 -133 210zM258 454c110 0 220 -84 220 -232c0 -157 -108 -238 -220 -238c-122 0 -216 115 -216 230c0 157 124 240 216 240zM359 550c28 0 42 6 62 44l10 -4
c-20 -52 -52 -90 -96 -90c-66 0 -98 60 -142 60c-32 0 -50 -8 -80 -56l-10 6c28 56 56 99 104 99c66 0 98 -59 152 -59z" />
    <glyph glyph-name="scaron" unicode="&#x161;" horiz-adv-x="409" 
d="M220 450c101 -11 121 -96 97 -92c-20 7 -15 48 -96 62c-54 9 -88 -22 -94 -51c-8 -39 22 -61 57 -82c17 -11 85 -55 104 -69c45 -32 70 -86 62 -135c-12 -72 -99 -112 -171 -103c-107 14 -173 120 -132 121c13 0 50 -78 134 -91c55 -8 92 22 99 59c9 44 -4 66 -34 88
c-22 16 -56 28 -109 63c-44 29 -79 72 -64 144c14 77 87 93 147 86zM201 493h-18l-123 173l16 7l116 -101l124 100l18 -6z" />
    <glyph glyph-name="uacute" unicode="&#xfa;" horiz-adv-x="528" 
d="M86 415l65 34c7 4 12 0 12 -7c0 -8 -6 -264 -6 -293c0 -62 31 -114 93 -114c50 0 71 12 119 30l-1 382h68v-453l-47 1c-14 -1 -20 2 -20 11s3 12 2 38c-34 -24 -79 -56 -146 -56c-55 0 -139 29 -139 126v301zM329 637c21 0 31 -13 31 -35c0 -26 -58 -53 -151 -118l-10 12
c77 89 101 141 130 141z" />
    <glyph glyph-name="ucircumflex" unicode="&#xfb;" horiz-adv-x="528" 
d="M86 415l65 34c7 4 12 0 12 -7c0 -8 -6 -264 -6 -293c0 -62 31 -114 93 -114c50 0 71 12 119 30l-1 382h68v-453l-47 1c-14 -1 -20 2 -20 11s3 12 2 38c-34 -24 -79 -56 -146 -56c-55 0 -139 29 -139 126v301zM233 670h18l123 -173l-16 -7l-116 101l-124 -100l-18 6z" />
    <glyph glyph-name="udieresis" unicode="&#xfc;" horiz-adv-x="528" 
d="M86 415l65 34c7 4 12 0 12 -7c0 -8 -6 -264 -6 -293c0 -62 31 -114 93 -114c50 0 71 12 119 30l-1 382h68v-453l-47 1c-14 -1 -20 2 -20 11s3 12 2 38c-34 -24 -79 -56 -146 -56c-55 0 -139 29 -139 126v301zM180 625c25 0 45 -19 45 -45c0 -28 -18 -45 -45 -45
c-25 0 -45 21 -45 45c0 28 20 45 45 45zM343 625c25 0 45 -19 45 -45c0 -28 -18 -45 -45 -45c-25 0 -45 21 -45 45c0 28 20 45 45 45z" />
    <glyph glyph-name="ugrave" unicode="&#xf9;" horiz-adv-x="528" 
d="M86 415l65 34c7 4 12 0 12 -7c0 -8 -6 -264 -6 -293c0 -62 31 -114 93 -114c50 0 71 12 119 30l-1 382h68v-453l-47 1c-14 -1 -20 2 -20 11s3 12 2 38c-34 -24 -79 -56 -146 -56c-55 0 -139 29 -139 126v301zM167 637c29 0 53 -52 130 -141l-10 -12
c-93 65 -151 92 -151 118c0 22 10 35 31 35z" />
    <glyph glyph-name="yacute" unicode="&#xfd;" horiz-adv-x="497" 
d="M403 431h33c-9 -24 -138 -372 -163 -431c-17 -41 -35 -77 -49 -98c-69 -101 -158 -101 -170 -81c-29 48 73 -3 140 85c10 14 29 57 48 94l-190 431h75s138 -330 141 -338s10 -8 12 -1s123 339 123 339zM349 637c21 0 31 -13 31 -35c0 -26 -58 -53 -151 -118l-10 12
c77 89 101 141 130 141z" />
    <glyph glyph-name="ydieresis" unicode="&#xff;" horiz-adv-x="497" 
d="M403 431h33c-9 -24 -138 -372 -163 -431c-17 -41 -35 -77 -49 -98c-69 -101 -158 -101 -170 -81c-29 48 73 -3 140 85c10 14 29 57 48 94l-190 431h75s138 -330 141 -338s10 -8 12 -1s123 339 123 339zM176 625c25 0 45 -19 45 -45c0 -28 -18 -45 -45 -45
c-25 0 -45 21 -45 45c0 28 20 45 45 45zM339 625c25 0 45 -19 45 -45c0 -28 -18 -45 -45 -45c-25 0 -45 21 -45 45c0 28 20 45 45 45z" />
    <glyph glyph-name="zcaron" unicode="&#x17e;" horiz-adv-x="400" 
d="M28 430h337c10 0 12 -4 12 -10c0 -8 -1 -13 -6 -19c-7 -8 -255 -354 -260 -359s-6 -10 0 -10h270v-33l-348 1c-9 0 -13 3 -13 8c0 2 0 4 2 7c6 9 263 374 268 382c3 4 5 12 -3 12h-259c1 4 -4 20 0 21zM211 493h-18l-123 173l16 7l116 -101l124 100l18 -6z" />
    <glyph glyph-name="sterling" unicode="&#xa3;" horiz-adv-x="698" 
d="M187 453c0 159 93 269 245 269c97 0 161 -46 161 -101c0 -41 -34 -49 -43 -49c-38 0 -46 46 -51 61c-16 51 -53 64 -92 64c-62 0 -150 -33 -150 -164c0 -28 4 -55 7 -83l4 -36h133v-30h-129c12 -99 29 -162 33 -260l37 -22c54 -32 102 -59 163 -59c62 0 119 31 155 82
l18 -15l-17 -22c-52 -65 -112 -113 -186 -113c-30 0 -70 4 -147 60l-32 24c-13 -43 -61 -83 -139 -83c-80 0 -131 38 -131 94c0 57 55 102 128 102c23 0 46 -5 68 -13c-7 71 -18 138 -24 179l-7 47h-83v28h81c-1 13 -2 27 -2 40zM168 -6c39 0 65 30 65 75c0 16 -2 32 -4 40
c-18 25 -48 42 -79 42c-41 0 -71 -28 -71 -64c0 -38 36 -93 89 -93z" />
    <glyph glyph-name="yen" unicode="&#xa5;" horiz-adv-x="755" 
d="M405 365c69 112 199 347 208 364h48c-12 -15 -179 -295 -237 -398v-48h193v-29h-193v-91h193v-29h-193v-134h-86v134h-197v29h197v91h-197v29h197v32l-239 414h103z" />
    <glyph glyph-name="onehalf" unicode="&#xbd;" horiz-adv-x="676" 
d="M620 20v-39c-1 -1 -14 -1 -253 -1c-1 0 -2 2 -3 3v18v1c47 68 110 121 157 166c33 31 52 62 52 97c0 47 -31 72 -67 72c-46 0 -66 -18 -78 -39l-15 9c10 11 23 50 91 50c70 0 124 -30 124 -94c0 -58 -36 -85 -81 -118c-49 -35 -104 -78 -137 -121c-1 -1 -2 -2 -2 -3v0
s0 -1 1 -1h211zM98 -49l400 807l36 -18l-401 -806zM99 706c-6 0 -8 4 -8 9c0 4 2 6 5 6c43 8 43 16 74 33c2 2 4 2 6 2c4 0 7 -3 7 -7v-1c-2 -11 -3 -39 -3 -135c0 -38 2 -127 2 -191l-46 -1c0 18 1 225 1 247c0 30 0 38 -11 39c-8 1 -18 -1 -27 -1z" />
    <glyph glyph-name="threequarters" unicode="&#xbe;" horiz-adv-x="676" 
d="M283 675c0 -45 -36 -76 -88 -93c52 -10 102 -34 102 -98c0 -62 -66 -110 -141 -110c-96 0 -149 69 -125 77c17 6 -1 -46 124 -59c41 -4 87 23 87 88s-45 92 -89 92c-15 0 -25 -5 -34 -5c-10 0 -15 5 -15 14s7 14 15 14c11 0 16 -4 33 -4c42 0 77 23 77 81
c0 52 -35 72 -69 72c-73 0 -101 -63 -111 -60c-37 11 48 80 112 77c65 -3 122 -27 122 -86zM128 -49l400 807l36 -18l-401 -806zM519 290l-134 -195l136 -1zM567 357v-358l-46 3v73c-115 -1 -150 -1 -154 -1c-5 0 -8 1 -8 7v12c0 3 0 7 5 12c35 41 36 50 179 253
c1 1 2 1 3 1h18c2 0 3 -1 3 -2z" />
    <glyph glyph-name="onequarter" unicode="&#xbc;" horiz-adv-x="676" 
d="M519 290l-134 -195l136 -1zM567 357v-358l-46 3v73c-115 -1 -150 -1 -154 -1c-5 0 -8 1 -8 7v12c0 3 0 7 5 12c35 41 36 50 179 253c1 1 2 1 3 1h18c2 0 3 -1 3 -2zM99 706c-6 0 -8 4 -8 9c0 4 2 6 5 6c43 8 43 16 74 33c2 2 4 2 6 2c4 0 7 -3 7 -7v-1
c-2 -11 -3 -39 -3 -135c0 -38 2 -127 2 -191l-46 -1c0 18 1 225 1 247c0 30 0 38 -11 39c-8 1 -18 -1 -27 -1zM128 -49l400 807l36 -18l-401 -806z" />
    <glyph glyph-name="bullet" unicode="&#x2022;" horiz-adv-x="295" 
d="M146 429c76 0 116 -52 116 -113c0 -62 -43 -116 -113 -116c-67 0 -117 48 -117 110c0 68 45 119 114 119z" />
    <glyph glyph-name="trademark" unicode="&#x2122;" horiz-adv-x="849" 
d="M434 413v319c0 3 53 1 55 -2c20 -42 22 -49 107 -241l107 243c0 1 1 2 3 2l45 1l1 -323h-45v280l-116 -264c-1 -2 -2 -5 -7 -5h-4c-3 1 -6 1 -7 5c-20 48 -25 55 -117 264c1 -150 0 -271 0 -279h-22zM128 715l-104 1c2 3 -4 16 1 16c143 0 275 3 319 3c2 0 -3 -12 0 -17
l-109 -1c-25 -1 -21 -10 -21 -82l2 -222l-46 -2c0 42 0 251 -1 285c0 17 -8 19 -41 19z" />
    <glyph glyph-name="degree" unicode="&#xb0;" horiz-adv-x="332" 
d="M166 660c-47 0 -85 -38 -85 -85s38 -85 85 -85s85 38 85 85s-38 85 -85 85zM166 701c69 0 126 -57 126 -126s-57 -126 -126 -126s-126 57 -126 126s57 126 126 126z" />
    <glyph glyph-name="daggerdbl" unicode="&#x2021;" horiz-adv-x="486" 
d="M201 739c0 33 19 53 42 53c25 0 45 -23 45 -58c0 -48 -30 -87 -30 -146c56 -32 86 -33 108 -28c-3 6 -4 12 -4 19c0 35 33 42 41 42c30 0 48 -30 34 -56c-13 -26 -45 -33 -76 -33c-40 0 -82 11 -101 17c-1 -50 37 -50 32 -73l-33 -155c-2 -10 -1 -13 0 -17l37 -160
c4 -15 -11 -15 -26 -41c-8 -14 -12 -31 -12 -47v-7l30 -12c15 -6 39 -16 66 -16c6 0 13 1 20 2c-13 23 1 58 32 59c21 1 39 -15 39 -37c0 -31 -31 -52 -80 -52c-42 0 -84 14 -105 23c1 -67 46 -125 29 -172c-6 -15 -20 -28 -42 -28c-19 0 -47 11 -47 55c0 53 32 94 30 153
c-52 30 -79 35 -100 35c-4 0 -8 -1 -12 -1c5 -8 15 -40 -13 -59c-4 -3 -12 -7 -23 -7c-33 0 -39 30 -39 38c0 32 33 54 83 54c46 0 84 -14 102 -22c-4 63 -39 57 -33 83l36 157c2 8 1 11 -1 19l-35 153c-5 22 9 8 27 46c6 12 9 26 9 39c-17 11 -54 33 -93 33
c-5 0 -11 0 -16 -1c4 -7 6 -14 6 -22c0 -35 -32 -41 -41 -41c-32 0 -38 30 -38 38c0 33 33 54 79 54c40 0 83 -14 100 -20c-2 53 -27 106 -27 139z" />
    <glyph glyph-name="oe" unicode="&#x153;" horiz-adv-x="787" 
d="M251 428c-56 0 -125 -33 -125 -212c0 -176 79 -208 120 -208c52 0 122 26 122 210c0 178 -66 210 -117 210zM569 454c118 0 176 -112 176 -199c0 -10 -1 -12 -10 -12h-297c0 -176 97 -217 159 -217c54 0 99 26 130 72c5 7 9 10 16 5c9 -6 10 -10 5 -17
c-35 -54 -84 -102 -183 -102c-65 0 -121 37 -154 87c-37 -53 -99 -87 -163 -87c-122 0 -206 115 -206 230c0 157 114 240 206 240c66 0 126 -30 169 -87c37 53 86 87 152 87zM569 426c-56 0 -123 -42 -130 -149h223c2 97 -26 149 -93 149z" />
    <glyph glyph-name="OE" unicode="&#x152;" horiz-adv-x="1126" 
d="M388 716c-68 0 -232 -23 -232 -348c0 -341 176 -354 230 -354c100 0 170 26 202 108c1 99 0 375 0 478c-23 84 -96 116 -200 116zM530 731h107c131 -1 391 0 399 0v-32h-359v-294c0 -9 1 -13 8 -13h91l1 -33h-87c-5 0 -11 0 -11 -6v-260c0 -39 6 -59 45 -59h339l-2 -32
c-5 0 -375 -1 -408 -1h-134c-31 1 -63 -13 -133 -13c-172 0 -336 157 -336 365c0 253 176 393 329 393c93 0 119 -15 151 -15z" />
    <glyph glyph-name="ellipsis" unicode="&#x2026;" horiz-adv-x="1000" 
d="M833 102c37 0 58 -26 58 -57s-22 -58 -57 -58c-33 0 -58 25 -58 55c0 34 22 60 57 60zM499 102c37 0 58 -26 58 -57s-22 -58 -57 -58c-33 0 -58 25 -58 55c0 34 22 60 57 60zM166 102c38 0 58 -26 58 -57s-22 -58 -57 -58c-33 0 -58 25 -58 55c0 34 22 60 57 60z" />
    <glyph glyph-name="brokenbar" unicode="&#xa6;" horiz-adv-x="500" 
d="M223 262h54v-449h-54v449zM223 782h54v-429h-54v429z" />
    <glyph glyph-name="florin" unicode="&#x192;" 
d="M115 -172c-57 0 -67 42 -67 54c0 28 25 43 46 38c30 -8 34 -44 15 -61c6 -2 12 -3 17 -3c54 0 64 64 67 81c27 149 43 302 59 453l2 15h-80v31h83c9 75 43 192 102 249c24 23 54 36 82 36c70 0 85 -57 85 -73c0 -30 -23 -51 -48 -48c-17 2 -35 16 -35 41
c0 26 21 40 30 44c-10 7 -23 11 -35 11c-65 0 -77 -78 -81 -104l-29 -156h92v-31h-94c-10 -86 -24 -178 -33 -266c-15 -149 -44 -211 -74 -251c-40 -53 -84 -60 -104 -60v0z" />
    <glyph glyph-name="mu" unicode="&#xb5;" horiz-adv-x="622" 
d="M60 -160c-15 0 -27 14 -27 35c0 10 4 25 5 48c8 126 25 185 41 308l28 216h72l-23 -205c-2 -20 -4 -40 -4 -60c0 -85 38 -152 98 -152c26 0 111 20 133 202l26 215h68l-27 -260c-1 -13 -2 -26 -2 -39c0 -60 24 -108 65 -108c17 0 42 5 79 71l15 -6
c-12 -30 -50 -113 -125 -113c-59 0 -100 52 -100 135v1c-14 -49 -48 -91 -93 -116c-14 -7 -42 -20 -77 -20c-75 0 -117 59 -119 144c-4 -37 -10 -104 -10 -190c0 -88 4 -49 4 -69c0 -23 -11 -37 -27 -37z" />
    <glyph glyph-name="mu" unicode="&#x3bc;" horiz-adv-x="622" 
d="M60 -160c-15 0 -27 14 -27 35c0 10 4 25 5 48c8 126 25 185 41 308l28 216h72l-23 -205c-2 -20 -4 -40 -4 -60c0 -85 38 -152 98 -152c26 0 111 20 133 202l26 215h68l-27 -260c-1 -13 -2 -26 -2 -39c0 -60 24 -108 65 -108c17 0 42 5 79 71l15 -6
c-12 -30 -50 -113 -125 -113c-59 0 -100 52 -100 135v1c-14 -49 -48 -91 -93 -116c-14 -7 -42 -20 -77 -20c-75 0 -117 59 -119 144c-4 -37 -10 -104 -10 -190c0 -88 4 -49 4 -69c0 -23 -11 -37 -27 -37z" />
    <glyph glyph-name="logicalnot" unicode="&#xac;" horiz-adv-x="592" 
d="M61 448h476v-221h-55v170h-421v51z" />
    <glyph glyph-name="ccedilla" unicode="&#xe7;" horiz-adv-x="455" 
d="M257 450c92 -3 145 -76 129 -85c-5 -2 -21 8 -46 29s-53 32 -86 31c-73 -1 -127 -63 -133 -190c-7 -153 60 -208 139 -211c71 -2 110 44 130 77c5 9 11 9 17 6c6 -4 8 -10 6 -15c-19 -41 -76 -111 -171 -108c-112 3 -208 90 -203 254c5 136 117 215 218 212zM147 -158
l17 17c18 -12 38 -19 71 -19c18 0 41 15 41 33c0 19 -12 39 -60 39c1 0 26 88 26 88h33l-22 -63c46 -1 76 -27 76 -56c0 -36 -51 -65 -96 -65c-36 0 -55 6 -86 26z" />
    <glyph glyph-name="cedilla" unicode="&#xb8;" horiz-adv-x="333" 
d="M67 -158l17 17c18 -12 38 -19 71 -19c18 0 41 15 41 33c0 19 -12 39 -60 39c1 0 26 88 26 88h33l-22 -63c46 -1 76 -27 76 -56c0 -36 -51 -65 -96 -65c-36 0 -55 6 -86 26z" />
    <glyph glyph-name="Ccedilla" unicode="&#xc7;" horiz-adv-x="695" 
d="M378 742c108 -2 168 -29 255 -137c4 -5 1 -10 -4 -12c-4 -2 -4 -2 -6 -4s-12 -1 -15 4c-44 74 -119 123 -223 119c-103 -4 -233 -74 -233 -360c0 -271 153 -328 249 -328c128 0 191 65 250 188c2 4 9 8 11 7s11 -7 13 -7s5 -7 2 -13c-45 -129 -150 -217 -280 -217
c-174 0 -354 118 -354 368c0 247 184 395 335 392zM287 -158l17 17c18 -12 38 -19 71 -19c18 0 41 15 41 33c0 19 -12 39 -60 39c1 0 26 88 26 88h33l-22 -63c46 -1 76 -27 76 -56c0 -36 -51 -65 -96 -65c-36 0 -55 6 -86 26z" />
    <glyph glyph-name="Euro" unicode="&#x20ac;" horiz-adv-x="639" 
d="M353 746c101 0 172 -71 242 -194c2 -5 1 -10 -4 -12c-4 -2 -8 -4 -10 -6s-11 -2 -13 3c-40 74 -120 179 -209 179c-93 0 -211 -75 -211 -362c0 -272 132 -330 219 -330c116 0 173 66 226 189c2 4 8 8 10 7s10 -7 11 -7c2 0 5 -7 2 -13c-40 -130 -135 -218 -253 -218
c-157 0 -313 119 -313 370c0 248 166 394 303 394zM117 393v38h285v-38h-285zM118 281v38h285v-38h-285z" />
    <glyph glyph-name="exclam" unicode="!" horiz-adv-x="183" 
d="M87 767c28 0 47 -25 47 -63l-16 -480c0 -8 -21 -12 -31 -12c-9 0 -29 5 -29 11l-19 482c0 29 19 62 48 62zM90 87c28 0 43 -21 43 -45s-16 -45 -43 -45c-24 0 -43 19 -43 44c0 26 16 46 43 46z" />
    <glyph glyph-name="aogonek" unicode="&#x105;" horiz-adv-x="456" 
d="M226 -158l17 17c18 -12 38 -19 71 -19c18 0 41 15 41 33c0 19 -12 39 -60 39c1 0 26 88 26 88h33l-22 -63c46 -1 76 -27 76 -56c0 -36 -51 -65 -96 -65c-36 0 -55 6 -86 26zM308 245c-74 -14 -179 -34 -179 -132c0 -48 30 -88 74 -80c48 9 71 15 105 28v184zM217 444
c131 0 155 -101 155 -168v-276h-53l-12 32c-33 -12 -67 -35 -133 -35s-120 45 -120 109c0 112 139 148 246 160c8 1 9 5 9 12c0 8 1 38 1 38c-1 37 -24 93 -93 96c-102 0 -102 -66 -127 -60c-26 12 29 91 127 92z" />
    <glyph glyph-name="gbreve" unicode="&#x11f;" horiz-adv-x="513" 
d="M198 4c-153 -46 -131 -185 41 -185c90 0 177 19 177 87c0 82 -143 82 -218 98zM247 427c-41 0 -108 -22 -108 -135c0 -118 64 -137 103 -137c42 0 109 23 109 139c0 102 -61 133 -104 133zM245 450c49 0 91 -18 125 -50c45 92 147 33 13 -10c22 -26 42 -55 42 -96
c0 -92 -77 -161 -183 -161c-26 0 -50 6 -75 17c-24 -8 -51 -28 -51 -47s26 -26 69 -36c38 -9 113 -15 159 -23c88 -16 125 -47 125 -117c0 -69 -64 -131 -230 -131c-228 0 -294 158 -71 214c-77 14 -120 32 -120 63c0 39 41 65 103 85c-51 28 -89 73 -89 128
c0 89 85 164 183 164zM161 659h32c5 -20 34 -55 62 -55s59 36 63 55h34c-7 -52 -48 -103 -97 -103c-57 0 -83 51 -94 103z" />
    <glyph glyph-name="Imacron" unicode="&#x12a;" horiz-adv-x="384" 
d="M93 780v16h202v-16h-202zM235 730v-732h-85l1 732h84z" />
  </font>
</defs>
</svg>
